<?xml version="1.0" encoding="UTF-8"?>
<!DOCTYPE svg PUBLIC "-//W3C//DTD SVG 1.1//EN" "http://www.w3.org/Graphics/SVG/1.1/DTD/svg11.dtd">
<!-- Creator: CorelDRAW (Versión de evaluación) -->
<svg xmlns="http://www.w3.org/2000/svg" xml:space="preserve" width="2056.05mm" height="875.111mm" version="1.1" style="shape-rendering:geometricPrecision; text-rendering:geometricPrecision; image-rendering:optimizeQuality; fill-rule:evenodd; clip-rule:evenodd"
viewBox="0 0 205605.1 87511.1"
 xmlns:xlink="http://www.w3.org/1999/xlink"
 xmlns:xodm="http://www.corel.com/coreldraw/odm/2003">
 <defs>
  <style type="text/css">
   <![CDATA[
    .fil0 {fill:#128EA6}
   ]]>
  </style>
 </defs>
 <g id="Capa_x0020_1">
  <metadata id="CorelCorpID_0Corel-Layer"/>
  <g id="_2983569928928">
   <path class="fil0" d="M30158.35 36852.08c0,-3265.97 2521.04,-5684.07 5413.41,-5684.07l541.35 0c2651.7,0 5232.95,2539.71 5232.95,5142.72l0 992.47c0,2392.57 -2654.85,5052.51 -5052.52,5052.51l-902.21 0c-2763.11,0 -5232.98,-2693.03 -5232.98,-5503.63zm12360.61 9112.56l0 -15157.52 12902.82 0.46c2517.41,6.85 2645.92,-671.88 1977.64,2609.63 -328.07,1611.11 -748.07,2769.69 -1404.61,4099 -2089.51,4230.74 -7225.76,8448.43 -13475.85,8448.43zm0 -30946.59l721.78 0c7542.38,0 14435.74,7376.16 14435.74,15067.29l-1442.59 48.26 -8572.22 -48.26 -1804.5 14.68 -3338.21 -14.68 0 -15067.29zm-15698.85 14886.83c0,-7785.27 7051.24,-14886.83 14435.72,-14886.83l721.78 0 0 15067.29c-3030.22,220.38 -6075.32,34.78 -9112.47,37.44l-5413.48 52.76c-279.13,0 -631.55,62.15 -631.55,-270.66zm-631.58 270.66c0,9093.85 7228.73,16330.43 15969.53,16330.43 8491.55,0 16059.77,-7073.72 16059.77,-15337.96l0 -992.47c0,-8746.35 -7367.14,-15789.07 -16149.99,-15789.07 -8457.05,0 -15879.31,7321.18 -15879.31,15789.07z"/>
   <path class="fil0" d="M63116 30627.53l2951.24 -0.87 0 4150.28 -1361.67 -1949.87 -153.04 4.86 -1404.67 1986.03 -31.86 -4190.43zm-41899.17 4149.36l-1327.24 -1966.22 -168.44 30 -1331.44 1970.46 -50.61 -4184.47 2977.37 0 -99.64 4150.23zm370.31 -4872.01l-2706.7 0c0,-12679.47 10710.99,-22826.5 23818.97,-22826.5 12198.2,0 22916.71,10665.97 22916.71,22826.5 -757.56,0 -1511.44,-4.22 -2267.85,-12.27 -1599.6,-17.01 -563.45,853.9 -1160.62,1094.94 -291.89,-608.3 15.16,-4581.06 -1864.02,-8511.65 -1261.34,-2638.23 -2311.17,-4171.89 -4248.03,-6127.67 -3251.56,-3283.38 -8686.25,-5927.67 -14561.9,-5673.91 -10007.41,432.22 -17702.43,7934.85 -18937.22,17332.73 -103.68,789 -125.11,1615.18 -168.59,2461.81 -101.81,1982.64 -469.84,-563.98 -820.75,-563.98zm-3969.82 631.58l0 5323.18c0,2037.26 2000.28,-1573.38 2075.13,-1894.71 328.31,87.67 2255.6,3733.35 2255.6,2165.37l0 -4511.17 721.78 0c453.99,0 527.33,-3699.49 604.34,-4177.49 576.69,-3579.65 2309.72,-7317.5 4694.26,-9831.69 2712.52,-2859.93 7639.08,-6291.06 13106.96,-6291.06l2255.57 0c7263.59,0 14583.16,5945.8 16770.14,12191.55 452.91,1293.49 824.85,2303.37 1066.76,3805.29 85.37,530.1 193.05,4303.4 568.67,4303.4l631.55 0 127.23 4787 346.78 134.6 1802.91 -2623.14c134.66,293.6 2144.02,3731.64 2144.02,2212.71l0 -5684.07c0,-409.94 -157.06,-509.38 -541.33,-541.35 0,-12256.84 -10971.41,-23367.82 -23277.62,-23367.82l-1353.35 0c-7418.35,0 -12908.32,3610.79 -16669.73,7329.65 -2882.6,2849.98 -5446.2,7515.88 -6207.62,11746.85 -159.54,886.53 -298.79,1661.23 -413.47,2563.88 -36.93,290.5 -53.61,1144.99 -130.13,1403.66 -208.97,706.62 -578.45,194.6 -578.45,955.36z"/>
   <path class="fil0" d="M23662.27 50024.69l37803.6 0 0 2706.69 -37803.6 0 0 -2706.69zm41773.41 1984.91l-3428.49 0c0,-3172.8 471.4,-2616.49 -2706.69,-2616.49l0 -270.66 6135.18 90.23c-422.24,35.14 -2680.32,1050.68 -2646.64,1332.13 44.68,373.48 2220.61,1094.46 2646.64,1464.79zm-46013.89 -2887.15l6045.37 -27.44 -0.56 287.8 -2256.42 32.89 -177.85 2593.98 -3610.54 -0.08 2596.72 -1304.66 131.25 -173.2 -2727.97 -1409.29zm0 0zm-1714.25 -451.12l1714.25 451.12zm-1714.25 -451.12l3451.19 1939.47 -3558.96 1619.18 107.34 305.42 5233.31 30.59c434.52,303.24 -87.32,706.74 451.19,706.74l38344.92 0c538.51,0 16.67,-403.5 451.12,-721.78l4872.34 -11.82 109.66 -300.55 -3470.57 -1717.58c96.6,-62.5 4842.68,-2030.1 3089.94,-2030.1l-7578.75 0c-397.46,0 -451.12,579.71 -451.12,992.44l-32751.15 -35.21 -90.13 -867.03c-919.14,-214.14 -6305.41,-90.2 -7668.98,-90.2 -253.78,0 -379.38,83.33 -541.35,180.43z"/>
   <path class="fil0" d="M94668.03 84193.04c141.79,0 101.95,-33.15 101.95,116.52 1080.26,0 711.5,-616.67 710.14,-1804.4l-0.08 -69291.59c0,-2282.04 224.78,-8527.49 -90.22,-10014.78l-721.79 0 0 80994.25z"/>
   <path class="fil0" d="M25466.75 30536.46c0,-9461.59 7456.68,-16871.77 17142.43,-16871.77 8619.43,0 16330.43,7634.17 16330.43,16240.19l0 1353.36c0,8282.58 -8222.63,16557.61 -17027.68,15948.94 -9149.7,-632.49 -16445.18,-7038.65 -16445.18,-16670.72zm-541.35 -180.46c0,9395.5 7597.42,17413.1 16781.55,17413.1l992.46 0c9221.21,0 16871.75,-8045.68 16871.75,-17413.1 0,-9284.4 -7791.76,-17232.66 -17052.2,-17232.66l-812.01 0c-9079.37,0 -16781.55,7987.18 -16781.55,17232.66z"/>
   <path class="fil0" d="M132291.17 34506.28c0,-1252.59 394.24,-1984.91 1714.22,-1984.91 900.53,0 1533.82,801.27 1533.82,1714.25 0,2503.03 -3248.04,2345.87 -3248.04,270.66zm-360.89 -3518.73c-1069.76,0 -1624.02,-152.91 -1624.02,270.69l0 8390.76c0,451.68 768.84,270.68 1984.91,270.68l0 -2887.14c763.39,203.83 339.92,631.55 2165.34,631.55 3925.86,0 4315.49,-6766.74 -360.89,-6766.74 -532.5,0 -1010.88,162.5 -1353.9,384.62 -1212.56,785.21 -30.07,-294.42 -811.44,-294.42z"/>
   <path class="fil0" d="M109464.67 61753.72c0,-1248.78 397.31,-1984.91 1714.25,-1984.91 900.5,0 1533.79,801.29 1533.79,1714.25 0,2508.07 -3248.04,2318.53 -3248.04,270.66zm-90.23 -2887.15c0,-766.77 176.24,-631.55 -1624.02,-631.55 -207.9,0 -270.66,62.76 -270.66,270.66l0 8390.76c0,430.89 604.03,270.68 1714.22,270.68 479.69,0 270.69,-2331.81 270.69,-2887.14 840.96,224.55 218.66,631.55 2345.8,631.55 1502.69,0 2887.15,-1666.89 2887.15,-3248.04 0,-2616.18 -2509.02,-4681.37 -5323.18,-2796.92z"/>
   <path class="fil0" d="M111269.12 33604.04l-1624.02 0 0 -2887.15c1947.65,0 3338.27,-336.7 3338.27,1533.79 0,906.84 -802.27,1353.36 -1714.25,1353.36zm-3608.93 3872.02c152.4,0 121.07,-41.97 121.07,97.8 2437.11,0 1863.84,256.85 1863.84,-2345.8 3021.21,0 6357.84,-516.06 5292.1,-4028.87 -643.49,-2121.08 -4464.62,-2761.53 -7277.01,-2106.32l0 8383.19z"/>
   <path class="fil0" d="M20594.69 68881.35l-270.66 0 0 -5323.15c1949.64,0 6044.96,-457.52 6044.96,2255.57l0 631.55c0,2816.89 -3307.88,2436.03 -5774.3,2436.03zm-1533.79 -6135.16l0 10285.43c0,388.52 1263.13,610.84 1263.13,0l0 -3157.8 3789.47 14.78c91.5,378.38 1158.39,1744.42 1446.86,2147.21 793.64,1108.22 511.45,1356.71 2161.96,1356.71l-2557.07 -3767.6c3089.78,-734.42 4312.19,-7149.42 -2675.88,-7149.42l-3157.81 0c-207.9,0 -270.66,62.79 -270.66,270.69z"/>
   <path class="fil0" d="M74728.68 72309.84l-1082.67 0c-1927.59,0 -3879.62,-2031.12 -3879.62,-3969.82l0 -721.78c0,-5402.51 8932.11,-5562.4 8932.11,90.21 0,2641.62 -1772.4,4601.39 -3969.82,4601.39zm-451.12 -9924.57c-7481.79,0 -7762.3,10896.76 -74.45,11054.1 7464.69,152.73 7572.82,-11054.1 74.45,-11054.1z"/>
   <path class="fil0" d="M48912.12 66896.13c12.68,1244.56 -107.83,5501.54 102.91,6406.18 1738.65,236.96 5120.57,93.3 7037.43,90.21 311.04,0 349.33,-66.73 631.55,-90.21 0,-431.65 137.03,-992.47 -270.66,-992.47l-6225.42 0 0 -3699.15c0,-780.43 5593.87,243.42 5593.87,-541.35l0 -721.78 -2705.87 -107.37c-708.38,-16.98 -2888,385.11 -2888,-163.29l0 -3518.7 6225.42 0 0 -812.01c0,-493.22 -6466.08,-270.69 -7398.32,-270.69l-102.91 4420.63z"/>
   <path class="fil0" d="M29797.46 62746.19l0 10375.66c0,207.9 62.79,270.67 270.69,270.67 1347.12,0 6470.07,126.03 7398.29,-90.21l0 -992.47 -6496.08 0 0 -3969.82 5593.87 0 0 -992.46 -2615.95 -101.05c-543.3,-15.55 -2977.92,384.52 -2977.92,-169.61l0 -3518.7 6044.99 0c412.16,0 240.94,-635.42 270.66,-992.47 -924.21,-215.32 -5889.26,-90.23 -7217.86,-90.23 -207.9,0 -270.69,62.79 -270.69,270.69z"/>
   <path class="fil0" d="M12564.82 68881.35l-2887.14 0 0 -5323.15c2385.95,0 6044.95,-463.99 6044.95,2345.8l0 631.55c0,1605.63 -1516.91,2345.8 -3157.81,2345.8zm-4150.27 -1353.34c0,1177.07 -116.5,4887.05 90.23,5774.3 973.74,143.04 551.73,144.71 1172.9,0l0 -3338.27c2981.52,0 7308.08,164.78 7308.08,-3518.72 0,-4506.54 -4483.44,-3969.82 -8210.32,-3969.82 -465.16,0 -360.89,4302.96 -360.89,5052.51z"/>
   <path class="fil0" d="M175147.22 32521.37c2659.79,0 1956.53,3518.7 451.12,3518.7l-631.55 0c-1668.11,0 -1870.71,-3518.7 180.43,-3518.7zm-180.43 5142.72l631.55 0c1742.67,0 3338.27,-1588.98 3338.27,-3338.27 0,-1993.37 -1659.16,-3428.47 -3699.16,-3428.47 -4846.02,0 -4509.48,6766.74 -270.66,6766.74z"/>
   <path class="fil0" d="M194815.92 63287.51l-631.56 0c-1510.46,0 -2263.29,-3518.7 541.33,-3518.7 1817.44,0 1862.32,3518.7 90.23,3518.7zm-3969.82 -1714.25c0,1764.12 1589.9,3338.27 3338.26,3338.27l631.56 0c4181.3,0 4648.04,-6766.74 -360.89,-6766.74 -1996.3,0 -3608.93,1447.4 -3608.93,3428.47z"/>
   <path class="fil0" d="M126877.76 33694.27l-3157.81 0c416.52,-1787.83 2757.74,-1717.29 3157.81,0zm-1624.02 3969.82c932.01,0 2648.23,-187.9 2887.15,-1082.67l-917.17 -1068.38c-491.07,253.43 -782.09,617.26 -1609.09,617.26 -1226.4,0 -1483.1,-485.26 -1894.68,-1263.13 729.07,0 4962.29,219.23 4962.29,-270.66l0 -451.12c0,-1904.89 -1522.56,-3248.04 -3428.5,-3248.04 -4596.43,0 -4587.15,6766.74 0,6766.74z"/>
   <path class="fil0" d="M146095.33 60941.71l-3157.81 0c416.24,-1786.63 2749.76,-1751.46 3157.81,0zm-5052.51 90.23l0 992.44c0,1514.53 1783.32,2887.15 3338.26,2887.15 945.8,0 2726.21,-142.07 2977.38,-1082.67l-874.97 -1018.79c-654.62,176.27 -2325.93,1610.26 -3545.97,-695.46 729.07,0 4962.26,219.23 4962.26,-270.66l0 -721.78c0,-1553.38 -1567.47,-2977.38 -3428.47,-2977.38 -1680.33,0 -3428.49,1329.29 -3428.49,2887.15z"/>
   <path class="fil0" d="M156290.57 34865.97l94.22 91.43c-20,1162.8 -1054.69,1754.65 -2079.13,1263.13l-89.39 32.81 -294.93 -803.08 68.49 -351.38 2300.74 -232.91zm-3969.85 -3246.84l660.05 1429.26c949.96,-503.42 3357.83,-1247.78 3400.03,645.88 -2090.28,0 -4330.74,-103.68 -4330.74,1984.91 0,2331.37 2829.73,2328.66 4420.94,1263.13l79.18 633.34c2279.2,-1.79 1815.53,98.28 1815.53,-2618.25 0,-2873.44 -683.6,-4060.05 -3428.5,-4060.05 -1282.82,0 -1783.71,527.77 -2616.49,721.78z"/>
   <path class="fil0" d="M119028.33 63558.2l-721.79 0c-356.69,0 -600.14,-434.47 -631.55,-812.01 174.73,-853.96 1512.23,-631.58 2165.35,-631.58 634.21,0 147.05,1443.59 -812.01,1443.59zm-2977.36 -4691.63l658.15 1430.08c845.29,-219.3 3220.27,-1537.5 3401.9,645.06 -2366.39,0 -4330.73,-71.13 -4330.73,2075.14 0,1521.23 1508.88,1894.68 2796.92,1894.68 787.15,0 1183.92,-427.08 1624.02,-721.78l79.18 633.36c1591.2,-1.81 1861.99,430.54 1824.68,-1084.28 -25.7,-1043.95 -98.59,-1490.95 -94.07,-2712.16 7.27,-1973.22 -1252,-2881.88 -3163.13,-2881.88 -1489.01,0 -1853.3,501.94 -2796.92,721.78z"/>
   <path class="fil0" d="M132471.6 63558.2l-721.78 0c-663.11,0 -1055.02,-1443.59 360.89,-1443.59l1443.59 0c0,731.09 -249.8,1443.59 -1082.7,1443.59zm-2345.8 -3248.07c1230.88,-651.29 2998.89,-1212.39 3428.5,631.58 -2180.82,0 -4330.74,-127.34 -4330.74,2075.14 0,1506.93 1508.83,1894.68 2796.92,1894.68 787.15,0 1183.92,-427.08 1624.02,-721.78 0,778.22 -193.17,631.55 1804.48,631.55l0 -4240.48c0,-2356.42 -3191.44,-2999.17 -5460.47,-1931.82 -783.41,368.51 -249.66,854.7 137.29,1661.13z"/>
   <path class="fil0" d="M177041.93 62114.61c0,1580.36 997.56,2796.92 2526.26,2796.92 1120.27,0 1272.08,-63.2 2255.57,-721.78 0,766.76 -176.24,631.55 1624.02,631.55 207.9,0 270.66,-62.76 270.66,-270.66l0 -6044.96c0,-430.89 -604.03,-270.66 -1714.22,-270.66 -890.76,0 716.43,4962.26 -1443.59,4962.26 -1046.84,0 -1624.02,49.28 -1624.02,-2165.34l0 -2796.92 -1894.68 0 0 3879.59z"/>
   <path class="fil0" d="M141854.83 36310.73c-1001.63,0 -1353.34,35.4 -1353.34,-902.21 0,-722.3 1762.18,-541.35 2345.8,-541.35 0,673.57 -85.31,1443.56 -992.46,1443.56zm2847.5 1263.13c0,-151.02 -34.06,-106.09 129.87,-106.09 0,-2139.94 330.43,-4733.85 -789.58,-5780.84 -1675.34,-1566.12 -3592.53,-487.72 -5165.17,-67.8l555.21 1346.84c690.71,-52.13 3414.63,-1466.4 3414.63,728.3 -8780.39,0 -2070.4,6339.86 0,3248.04l207.06 627.74 1647.98 3.81z"/>
   <path class="fil0" d="M167388.02 64715.09l315.72 106.21 1487.35 0 1.41 -6586.28 -1894.69 0c0,2039.13 587.8,5167.93 -1709.77,4972.59 -1139.98,-96.93 -1095.18,-1058.27 -1088.22,-2264.83 7.06,-1224.84 423.12,-2714.26 -705.41,-2729.04 -1783.07,-23.33 -1278.32,229.18 -1278.45,2096.42 -0.15,1975.75 -120.25,4162.83 2203.7,4565.18 1676.84,290.28 1875.68,-473.93 2668.36,-685.59l0 525.34z"/>
   <path class="fil0" d="M180560.63 37481.12c157.31,0 128.08,-45.14 128.08,92.74l1768.03 0c-1.4,-1965.52 -503.85,-4904.28 1445.92,-4976.28 2061.48,-76.11 1439.8,3075.84 1439.8,4976.28l1894.71 0c0,-1810.1 349.79,-4557.54 -484.7,-5650.46 -1162.54,-1522.59 -2996.79,-1145.23 -4387.36,-214.04 0,-863.34 -651.04,-983.16 -1519.93,-709.07 -484.73,152.91 -284.75,1348.55 -284.55,1972.17 0.46,1502.9 0,3005.79 0,4508.66z"/>
   <path class="fil0" d="M66879.25 71136.94c-1338.73,357.47 -1908.06,1936.94 -4920.32,950.5 -1369.37,-448.46 -2838.89,-2027 -2838.89,-3747.42l0 -812.01c0,-1768.46 1410.8,-3247.14 2743.88,-3752.2 2266.85,-858.83 3597.14,66.01 4925.1,955.29l743.03 -700.58c-604.08,-891.63 -2485.59,-1645.25 -3991.07,-1645.25 -4177.57,0 -7184.18,4527.15 -4949.91,8288.2 862.52,1451.95 2370.91,2603.39 4561.42,2746.39 1557.27,101.66 5561.05,-939 3726.76,-2282.92z"/>
   <path class="fil0" d="M39631.81 73302.31c1661.74,238.13 1263.13,564.06 1263.13,-4511.17l5232.94 0c476.93,0 544.52,-1082.69 90.23,-1082.69l-5323.17 0 0 -4150.25 6225.41 0c0,-769.61 106.09,-1082.7 -270.68,-1082.7l-6947.18 0c-494.77,0 -270.68,9608.82 -270.68,10826.81z"/>
   <path class="fil0" d="M48654.14 27649.31l1353.36 0c304.55,0 381.61,694.11 451.12,992.44l-2165.37 0c0,-385.54 -0.36,-992.44 360.89,-992.44zm-3157.99 -254.42c71.15,-191.89 685.42,-1189.17 992.62,-1189.17l5774.3 0c330.76,0 758.1,900.48 902.24,1172.9l-7669.16 16.27zm180.61 -1910.95c0,-5692.71 -311.07,-4781.83 1082.7,-4781.83l6134.37 -64.86 0.82 5027.15 -6947.2 90.2c-207.9,0 -270.69,-62.76 -270.69,-270.66zm-270.66 -2075.14c0,3246.71 201.46,2208.98 -830.57,3680.59 -322.61,460.02 -1140.7,1301.21 -1154.34,1913.25l11729.82 26.55c-9,-1331.47 -1985.7,-2251.74 -1985.7,-3635.48l0 -4511.16c0,-644.86 -4376.77,-361.2 -5232.97,-360.87 -2920.48,1.15 -2526.24,-543.5 -2526.24,2887.12z"/>
   <path class="fil0" d="M159989.73 34325.82c0,1755.58 1615.88,3338.27 3338.24,3338.27l812.01 0c950.37,0 2259.23,-865.05 2436.03,-1624.02l-1345.59 -825.77c-604.18,413.14 -848.04,1104.9 -1987.95,829.02 -1911.81,-462.68 -1447.57,-3521.95 175.73,-3521.95 909.32,0 1224.74,75.39 1676.68,909.12l1481.13 -909.12c-1058.3,-2658.69 -6586.28,-2053.2 -6586.28,1804.45z"/>
   <path class="fil0" d="M157463.47 58415.45l-721.78 0 0 1443.59c436,0 992.44,-34.3 992.44,270.66l0 4691.6 1894.71 0c58.05,-1648.98 -109.26,-3350.19 88.59,-4962.47l1534.97 23.25 0.46 -1466.63 -1624.02 0c0,-1148.86 288.3,-1172.9 992.44,-1172.9 598.48,0 637.43,509.97 980.4,-759.43 240.43,-889.93 -836.11,-774.36 -1611.95,-774.36 -2538,0 -2032.89,2706.69 -2526.26,2706.69z"/>
   <path class="fil0" d="M171628.52 58415.45l-992.44 0 0 1443.59 721.78 0c937.94,0 -1091.16,5052.49 2526.26,5052.49 1354.84,0 963.42,-185.96 1714.22,-360.89 -129.61,-1557.58 -475.46,-1172.9 -1263.13,-1172.9 -1120.49,0 -812,-1760.39 -812,-3248.04 0,-400.23 1015.92,-270.66 1624.01,-270.66l0 -1443.59c-1972.53,0 -1624.01,348.51 -1624.01,-1624.02l-1894.69 0 0 1624.02z"/>
   <path class="fil0" d="M36380.08 25348.39l1522.44 -3074.25 107.42 51.58 547.69 2885.95 -2177.55 136.72zm-4595.1 -3563.09l1606.19 2894.43 -2150.12 -7.8 543.93 -2886.63zm6574.41 1084.3l1375.1 2427.41 -824.92 -80.35 -550.18 -2347.06zm-7028.11 -2.14c-944.95,4056.03 -987.69,661.39 0,0zm3372.79 -1539.09l-2923.23 -244.65 -1893.89 4129.23c1070.11,566.15 3183.41,995.41 3970.56,-180.13l-1857.8 -3671.48 2761.57 224.19c-1.53,1582.69 -1.97,3146.56 -1.51,4710.42 1.03,3549.39 -1115.97,2093.68 -1533.81,3248.04l3609.39 -15.32c-254.4,-454.11 -1714.71,-1104.13 -1714.71,-1608.7l0 -6225.41 2705.67 108.33 -1879.42 3824.27c1075.9,694.67 1110.83,668.79 2421.79,668.79 564.85,0 1714.25,-367.67 1714.25,-812.01 0,-315.47 -1874.07,-3732.28 -2075.14,-3879.59l-2888.4 -253.88 52.63 -1458.29 -328.54 -28.47 -139.41 1464.66z"/>
   <path class="fil0" d="M149614.03 47859.32c0,-3219.16 4691.63,-3229.13 4691.63,0 0,3378.76 -4691.63,3345.71 -4691.63,0zm-902.24 -180.43c0,2119.44 1150.07,3518.7 3248.04,3518.7 1224.13,0 1666.96,-628.1 2345.83,-1082.67l0 3338.24 902.21 0 0 -8751.65 -902.21 0 0 1082.68c-741.45,-543.25 -1016.69,-1172.9 -2436.03,-1172.9 -1712.59,0 -3157.84,1364.99 -3157.84,3067.6z"/>
   <path class="fil0" d="M108111.31 47949.55c0,-3408.47 4691.62,-3300.21 4691.62,-90.23 0,3433.03 -4691.62,3240.52 -4691.62,90.23zm-902.24 -270.66l0 541.32c0,1669.32 1498.8,2977.38 3248.04,2977.38 1224.13,0 1666.93,-628.1 2345.82,-1082.67l0 3338.24 902.22 0 0 -8751.65 -902.22 0 0 1082.68c-741.44,-543.25 -1016.68,-1172.9 -2436.05,-1172.9 -1696.04,0 -3157.81,1385.07 -3157.81,3067.6z"/>
   <path class="fil0" d="M149523.8 56069.65l0 8480.99c0,430.89 604.06,270.66 1714.25,270.66 207.9,0 270.66,-62.76 270.66,-270.66l0 -8480.99c0,-430.89 -604.03,-270.66 -1714.22,-270.66 -207.9,0 -270.69,62.76 -270.69,270.66z"/>
   <path class="fil0" d="M118577.21 31709.36c0,-858.97 251.35,-721.81 -1624.02,-721.81 -207.88,0 -270.66,62.79 -270.66,270.69 0,1234.74 -119.98,5413.35 90.22,6315.62 2543.47,0 1916.17,109.56 1890.98,-2710.43 -28.14,-3145.22 2169.07,-1628.49 2169.07,-2432.29l0 -1263.13c0,-896.3 -2149.35,470.2 -2255.59,541.35z"/>
   <path class="fil0" d="M172801.42 45423.29c1194.21,0 2165.37,900.56 2165.37,2075.14l-4420.94 0c25.73,-1154.87 1044.75,-2075.14 2255.57,-2075.14zm-3157.81 2255.6l0 451.1c0,1805.8 1576.25,3067.6 3428.5,3067.6 794.03,0 2341.27,-550.55 2289.46,-1166.45 -85.01,-1010.32 -1149.27,354.44 -2199.26,354.44 -1468.26,0 -2505,-825.97 -2616.46,-2165.37 759.17,0 5323.18,220 5323.18,-270.66 0,-4548.35 -6225.42,-4173.57 -6225.42,-270.66z"/>
   <path class="fil0" d="M125975.52 58956.8c0,-858.97 251.35,-721.78 -1624.02,-721.78 -207.87,0 -270.66,62.76 -270.66,270.66l0 6044.96c0,430.89 604.03,270.66 1714.25,270.66 525.47,0 209.38,-2892.8 285.32,-3504.02 234.19,-1884.99 2150.71,-1044.44 2150.71,-1638.7l0 -1263.13c0,-882.32 -2144.96,467.26 -2255.6,541.35z"/>
   <path class="fil0" d="M187688.29 58956.8c0,-858.97 251.32,-721.78 -1624.02,-721.78 -207.9,0 -270.69,62.76 -270.69,270.66l0 6044.96c0,430.89 604.06,270.66 1714.25,270.66 525.49,0 209.41,-2892.8 285.34,-3504.02 234.19,-1884.99 2150.69,-1044.44 2150.69,-1638.7l0 -1263.13c0,-834.9 -2133.71,459.71 -2255.57,541.35z"/>
   <path class="fil0" d="M185703.38 45423.29c1194.2,0 2165.34,900.56 2165.34,2075.14l-4420.94 0c25.73,-1154.87 1044.74,-2075.14 2255.6,-2075.14zm-3157.84 2075.14l0 631.56c0,1801.25 1560.54,3067.6 3428.5,3067.6 1395.99,0 1726.45,-736.87 2345.8,-902.24l-340.92 -733.98c-468.66,132 -954.03,824.21 -1914.65,824.21 -1473,0 -2506.26,-840.78 -2616.49,-2165.37 759.2,0 5323.18,220 5323.18,-270.66 0,-2013.12 -1309.14,-3338.26 -3248.04,-3338.26 -1464.38,0 -2977.38,1458.08 -2977.38,2887.14z"/>
   <path class="fil0" d="M127599.54 45423.29c1200.01,0 2165.37,884.62 2165.37,2075.14l-4420.94 0c25.73,-1154.87 1044.74,-2075.14 2255.57,-2075.14zm-3157.81 2075.14l0 541.35c0,1889.98 1509.14,3157.81 3428.5,3157.81 1395.97,0 1726.45,-736.87 2345.8,-902.24l-340.92 -733.98c-468.66,132 -954.03,824.21 -1914.68,824.21 -1472.97,0 -2506.23,-840.78 -2616.46,-2165.37 759.17,0 5323.18,220 5323.18,-270.66 0,-1956.67 -1290.21,-3338.26 -3157.84,-3338.26 -1534.25,0 -3067.58,1415.78 -3067.58,2887.14z"/>
   <path class="fil0" d="M144110.42 45423.29c1194.21,0 2165.35,900.56 2165.35,2075.14l-4420.94 0c98.26,-1180.59 970.88,-2075.14 2255.59,-2075.14zm-3157.83 2345.81c0,2140.17 1370.31,3428.49 3428.49,3428.49 645.52,0 1216,-222.09 1630.29,-445.39 1055.36,-568.84 597.05,-608.64 444.85,-1178.63 -440.48,36.65 -987.66,812.01 -2075.14,812.01 -1413.4,0 -2418.43,-869.76 -2526.25,-2165.37l5323.17 0 0 -721.78c0,-1591.89 -1559.72,-2887.14 -3248.03,-2887.14 -1606.48,0 -2977.38,1478.57 -2977.38,3157.81z"/>
   <path class="fil0" d="M148757.14 31588.41c44.88,-738.02 296.24,-600.86 -1579.14,-600.86 -207.87,0 -270.66,62.79 -270.66,270.69l0 6044.96c0,430.89 604.04,270.66 1714.25,270.66 528.28,0 99.18,-3337.45 443.6,-4067.57 969.04,-2054.27 1992.43,1033.9 1992.43,-2608.94l-2300.48 691.06z"/>
   <path class="fil0" d="M116411.86 48220.21c0,1880.62 936.18,2977.38 2796.92,2977.38 1260.32,0 1561.85,-618.12 2255.57,-1082.67l-2.19 992.55 814.2 -0.11 0 -6405.85 -631.55 0c-924.67,0 1005.33,5684.07 -2255.59,5684.07 -3571.93,0 -1152.93,-5684.07 -2255.58,-5684.07l-721.78 0 0 3518.7z"/>
   <path class="fil0" d="M157914.59 48220.21c0,1880.62 936.18,2977.38 2796.92,2977.38 1220.57,0 1573.07,-625.67 2255.57,-1082.67l0 992.44 812.01 0 0 -6405.85 -631.55 0c-924.67,0 1005.33,5684.07 -2255.6,5684.07 -3590.62,0 -1134.2,-5684.07 -2255.57,-5684.07l-721.78 0 0 3518.7z"/>
   <path class="fil0" d="M190304.75 46235.3l0 541.35c0,1978.6 4060.05,1082.44 4060.05,2526.26 0,874.77 -739.18,1082.67 -1624.02,1082.67 -1168.17,0 -2402.32,-999.27 -2570.38,-226.47 -253.96,1167.92 5186.86,1859.16 5186.86,-856.2 0,-2396.44 -4150.27,-1089.12 -4150.27,-2887.15 0,-1292.46 2149.76,-1175.48 3518.7,-451.12l380.84 -710.37c-2445.24,-1297.17 -4801.78,-370.89 -4801.78,981.03z"/>
   <path class="fil0" d="M37556.67 38927.22l482.68 790.5 -3911.15 21.51 0 -270.66 2255.57 0c114.37,-490.87 -88.39,-902.24 451.12,-902.24 667.33,0 399.51,334.21 90.23,541.35 245.85,-920.76 -310.38,-336.04 -302.22,-101.13 26.44,761.53 763.31,-17.62 933.77,-79.33zm-2526.26 -902.24l1540.18 53.07 -1539.41 18.67 -0.77 -71.74zm-285.7 -15.04l-60.15 120.31 60.15 -120.31zm387.46 -1662.61l-11.53 -217.03 445.16 -45.42 28.46 116.77 -462.09 145.68zm-0.94 -2382.07l440.53 -0.33 0 1714.25 -451.12 0 10.59 -1713.92zm1342.77 1353.03l-216.55 -345.37 216.55 345.37zm0 0l-541.35 -721.78c1678.34,0 1969.1,2217.97 1624.02,3699.16l-180.43 0c182.7,-2195.58 -1338.71,-1626.79 -1443.59,-2887.15l541.35 -90.23zm-1091.93 -1804.84l-171.2 0.36 69.61 -1003.41 141.66 12.2 -40.07 990.85zm-351.66 3067.97l631.58 0c487.69,0 149.25,-669.87 912.7,253.29 395.21,477.9 673.06,489.69 530.86,1100.04l-3334.79 -251.28c-3.45,1724.2 2342.35,115.42 2342.35,1063.29l0 360.92 -2255.6 0c-59.74,256.46 -283.37,992.44 180.46,992.44l4240.48 0c659.22,0 -387.36,-1068.04 -465.83,-1333.97 -80.74,-273.56 346.24,-1228.63 340.82,-1825.81 -10.77,-1185.02 -793.14,-2614.52 -2130.56,-2614.52 -316.8,-1359.85 -270.66,-828.2 -270.66,-2075.14l-631.58 0c-425.01,0 -675.54,4330.74 -90.23,4330.74z"/>
   <path class="fil0" d="M168109.82 37484.24c156.32,0 128.21,-45.39 128.21,89.62l1767.88 0 -1.41 -6586.31 -1894.68 0 0 6496.69z"/>
   <path class="fil0" d="M12203.93 78535.26zm0 0zm0 0c436.75,910.24 -766.35,3789.36 631.56,3789.36l-11.44 -5052.74 -329.94 -152.56 -2284.88 3755.78 -2374.91 -3747.42 -310.58 144.2 -16.93 5052.74 546.85 0 0 -3789.36c275.13,439.28 1896.11,3223.62 2157.9,3297.53l1992.37 -3297.53z"/>
   <path class="fil0" d="M61826.76 77542.79l0 4601.4c0,276.31 394.47,568.59 532.37,-75.6l8.95 -3533.33c311.17,503.55 1839.92,3114.61 2116.31,3326.73l2003.53 -3344.96c30.44,861.67 22.07,1709.08 28.95,2551.96 11,1349.47 633.06,1915.34 633.06,984.97l-107.95 -4780.73 -433.39 -1.1 -2112.3 3677.55c-89.67,-71.33 -2669.53,-4904.34 -2669.53,-3406.89z"/>
   <path class="fil0" d="M73646.01 79888.59c0,-2899.47 4150.25,-2913.44 4150.25,90.23 0,2354.19 -4150.25,2663.01 -4150.25,-90.23zm-631.58 -180.43c0,3711.28 5413.41,3446.55 5413.41,90.23 0,-3409.32 -5413.41,-3379.24 -5413.41,-90.23z"/>
   <path class="fil0" d="M48383.48 81873.53c-3019.27,0 -2965.54,-4150.28 0,-4150.28 2540.43,0 2545.85,4150.28 0,4150.28zm-2796.92 -2165.37c0,3796.27 5323.15,3216.74 5323.15,451.12l0 -541.35c0,-3176.5 -5323.15,-3206.86 -5323.15,90.23z"/>
   <path class="fil0" d="M35752.22 81873.53c-2760.33,0 -2827.43,-4150.28 90.2,-4150.28 2545.11,0 2715.03,4150.28 -90.2,4150.28zm-2706.72 -2165.37c0,1599.16 1199.93,2706.69 2616.49,2706.69 2463.67,0 3608.24,-2656.82 2048.95,-4394.75 -1436.99,-1601.59 -4665.44,-730.09 -4665.44,1688.06z"/>
   <path class="fil0" d="M41165.6 80249.51l-1263.11 0 0 -2255.6c0,-207.9 62.76,-270.66 270.66,-270.66l721.79 0c2627.66,0 2381.22,2526.26 270.66,2526.26zm-1804.45 -270.69c0,925.51 -392.81,2423.55 541.34,2345.8l0 -1624.02 1804.46 0c384.67,1440.62 3058.75,2896.26 541.34,0 544.19,-742.72 1082.67,-194.42 1082.67,-1984.91 0,-1710.49 -2766.84,-1443.56 -3969.81,-1443.56l0 2706.69z"/>
   <path class="fil0" d="M137260.41 45510.35c83.25,-889.35 264.19,-808.84 -818.99,-808.84l0 6405.85 902.24 0 0 -3067.58c0,-1020.01 210.15,-1615.76 786.46,-2100.71 1116.76,-939.76 1559.36,331.37 1559.36,-1327.78l-76.08 -167.8 -2352.99 1066.86z"/>
   <path class="fil0" d="M178830.78 51107.36c0,-155.11 -41.28,-120.71 105.83,-120.71 0,-2613.5 -499.99,-5473.13 2144.99,-5473.13l110.61 -86.82c146.7,-236.75 90.2,-310.03 90.2,-670.53 -145.8,0 -94.09,29.31 -94.09,-144.88 -1669.16,141.45 -1847.21,786.33 -2251.71,1082.67 0,-1096.1 193.81,-992.45 -902.24,-992.45l0 6405.85 796.41 0z"/>
   <path class="fil0" d="M27812.55 77542.79l0 4781.83 631.58 0 0 -2345.8 2887.15 0c636.33,0 -396.8,2350.46 631.55,2436.03 172.63,-163.76 499.86,-5142.72 -180.46,-5142.72 -470.73,0 -270.66,955.23 -270.66,2255.57l-3067.58 0 0 -2255.57c-438.97,0 -631.58,-61.07 -631.58,270.66z"/>
   <path class="fil0" d="M45947.45 31258.24l0 1082.67c-1567.57,0 -1353.36,-190 -1353.36,902.24 0,400.86 421.15,270.66 1353.36,270.66 0,1567.58 -190.02,1353.36 902.22,1353.36 400.88,0 270.68,-421.15 270.68,-1353.36 1463.26,0 1263.13,181.94 1263.13,-902.21 0,-368.95 -767.64,-270.69 -1263.13,-270.69 0,-1567.57 190,-1353.36 -902.24,-1353.36 -207.9,0 -270.66,62.79 -270.66,270.69z"/>
   <path class="fil0" d="M69946.85 80249.51l-812.01 0 0 -2436.03c202.35,-47.16 207.44,-90.23 451.12,-90.23l270.66 0c2831.07,0 2786.72,2526.26 90.23,2526.26zm-1443.58 2075.11c755.61,0 631.57,114.07 631.57,-1624.02 1822.95,0 3338.27,300.56 3338.27,-1984.91 0,-1739.08 -2740.81,-1443.56 -3969.84,-1443.56l0 5052.49z"/>
   <path class="fil0" d="M14188.84 77542.79l0 4781.83c341.38,0 396.11,47.37 623.83,54.35 173.43,5.32 370.89,-54.35 549.07,-54.35l2436.03 0 0 -451.09 -2666.94 -26.45c-462.81,-46.26 -310.43,-86.11 -310.43,-1868.26l2616.48 0 0 -451.12c-3452.79,0 -2616.48,428.21 -2616.48,-1804.45l2887.14 0 0 -451.12 -3248.03 0c-207.9,0 -270.67,62.79 -270.67,270.66z"/>
   <path class="fil0" d="M45766.99 37393.43l-865.97 941.24 664.47 703.82 1057.86 -882.92 1031.98 965.48c113.17,-281.86 394.42,-553.06 589.1,-791.6l-871.83 -1009.14 887.84 -959.79c-158.69,-182.91 -547.1,-519.04 -562.99,-748.73l-1215.73 982.31c-82.38,-101.94 -611.94,-1382.43 -1301.98,-594.57 -529.36,604.42 288.64,829.53 587.25,1393.9z"/>
   <path class="fil0" d="M58586.54 77997.39l172.61 -3.48 1012.47 2517.87 -2275.6 8.39 1090.52 -2522.78zm-2558.81 4364.8c1143.1,29.77 790.88,-1390.9 1468.29,-1390.9l2165.37 0c947.66,0 249.79,1353.33 1533.79,1353.33l-2444.14 -5268.98 -334.37 93.35 -2388.94 5213.2z"/>
   <path class="fil0" d="M22399.14 79708.16c0,3477.96 4757.82,3069.99 4420.97,1624.02 -553.06,12.33 -785.18,541.35 -1624.02,541.35 -2978.45,0 -2818.2,-4150.28 0,-4150.28 737.18,0 1221.21,541.32 1443.56,541.32 902.19,0 -441.83,-1419.16 -2367.38,-923.95 -997,256.39 -1873.13,1162.24 -1873.13,2367.54z"/>
   <path class="fil0" d="M51451.06 79527.7l0 451.12c0,1370.96 1232.77,2436.03 2616.49,2436.03 583.98,0 1804.45,-376.18 1804.45,-812.01 0,-720.58 -706.84,270.69 -1714.22,270.69 -984,0 -2075.14,-714.34 -2075.14,-1624.02l0 -721.81c0,-1082.26 973.44,-1804.45 2165.34,-1804.45 685.24,0 1624.02,936.94 1624.02,270.66 0,-347.54 -843.57,-648.05 -1182.44,-714.03 -1667.42,-324.7 -3238.5,804.13 -3238.5,2247.82z"/>
   <polygon class="fil0" points="166576.01,51107.36 167478.25,51107.36 167478.25,44701.51 166576.01,44701.51 "/>
   <path class="fil0" d="M18790.22 82324.62l3083.84 8.44c557.16,-29.13 426.65,-190.87 254.42,-549.76 -808.4,188.33 -1544.78,64.99 -2324.36,55.55 -236.06,-2.87 -382.33,79 -382.33,-236.01l0 -4330.71 -631.57 0 0 5052.49z"/>
   <path class="fil0" d="M45225.65 42806.81c-523.53,-139.77 -233.15,-631.55 -992.45,-631.55 -344.95,0 -32.83,-27.7 -270.66,90.23 109.72,410.91 319.82,227.36 647.97,615.13 230.92,272.86 323.91,543.19 615.14,738.2 407.74,-273.02 1044.99,-2338.13 1172.92,-2887.13l3703.46 4.3c656.33,12.53 794.46,138.85 807.68,-455.41l-3789.36 -90.23c-1134.89,0 -998.07,101.3 -1314.51,941.08 -209.94,557.23 -448.74,1111.17 -580.19,1675.38z"/>
   <path class="fil0" d="M50278.16 32701.8l0 631.58c562.83,0 705.8,93.35 1263.44,95.6 572.04,2.33 824.41,-95.6 1082.36,-95.6l1894.71 0 0 -902.24c-697.61,0 -1160.14,-90.23 -1714.25,-90.23 -1262.54,0 -2526.26,-224.88 -2526.26,360.89z"/>
   <path class="fil0" d="M167839.14 29092.87c0,1349.29 2436.03,1491.16 2436.03,-90.23 0,-1346.53 -2436.03,-1338.06 -2436.03,90.23z"/>
   <path class="fil0" d="M60112.51 20972.77l177.23 452.58c374.7,-88 982.91,-453.73 1356.56,-633.01 -195.19,539.25 -925.36,583.68 -1082.67,1172.9 277.84,319.67 224.32,278.34 769.96,146.42 272.99,-65.98 763.98,-150.13 944.29,-236.65 -97.55,269.46 194.08,71.64 -720.51,452.43 -834.31,347.33 -600.6,245.24 -632.85,540.02 343.11,286.59 1961.71,-615.24 2255.57,-812.01 -28.19,-338.77 -130.61,-422.4 -270.66,-631.56l-1352.03 189.87c564.49,-880.34 1411.92,-600.86 720.48,-1633.43l-2165.37 992.44z"/>
   <path class="fil0" d="M40714.5 9424.18c-544.31,-398.79 -157.36,-1443.56 -992.46,-1443.56 -539.23,0 -212.66,1606.42 -195.55,1820.67 88,1101.31 470.3,481.17 466.21,434.9l-108.85 -1441.92 573.5 1527.65c487.25,-6.65 481.01,-140.82 558.86,-596 48.67,-284.68 75.55,-706.57 149.39,-1023.52 216.95,341.94 180.46,1001.52 180.46,1533.79l451.11 0c0,-488.28 -23.22,-2436.03 -360.89,-2436.03 -706.41,0 -721.78,916.49 -721.78,1624.02z"/>
   <path class="fil0" d="M50278.16 36761.85c0,906.48 -322.6,631.58 3969.82,631.58 359.74,0 270.69,-255.6 270.69,-902.24l-3969.85 0c-207.87,0 -270.66,62.78 -270.66,270.66z"/>
   <path class="fil0" d="M174245.01 30175.54c1306.63,0 1338.27,141.38 2094.83,-521.63 319.79,-280.25 1261.73,-950.44 1423.87,-1192.59l-1804.48 -90.23c-270.15,0 -1640.43,1528.09 -1714.22,1804.45z"/>
   <path class="fil0" d="M54338.21 12491.79l175.34 -362.79c596.7,51.13 1124.03,813.91 456.24,813.91 -176.91,0 -546.41,-334.88 -631.58,-451.12zm451.12 2075.14c192.61,-342.81 83.43,-905.06 0,-1263.13 376.59,31.33 426.82,145.31 704.59,-103.99 732.42,-657.38 -438.51,-1416.48 -975.25,-1700.49 -188.13,125.98 -1890.54,2105.67 -1109.55,2048.39 335.75,-24.63 697.18,-1170.45 904.97,-414.86 187.37,681.35 -253.37,1239.53 475.24,1434.08z"/>
   <path class="fil0" d="M44052.75 10055.76c0,-392.99 -382.3,-270.66 -1263.13,-270.66l0 -541.35 902.24 0c273.8,0 547.79,-319.46 89.89,-435.19 -58.18,-14.7 -928.09,-100.81 -992.13,-106.16l0 -360.89 1353.35 0c-15.88,-713.29 -482.09,-406.06 -1258.47,-476.03 -584.77,-52.68 -554.83,22.25 -544.37,1109.27 16.12,1675.65 -553.98,1062.01 1141.96,1309.29 287.39,41.92 570.66,126.78 570.66,-228.28z"/>
   <path class="fil0" d="M58849.38 51107.36c221.12,162.02 267.54,266.27 180.46,451.12 -447.52,-39.08 -180.46,124.25 -180.46,-451.12zm-1894.68 180.46l0 -360.89 725.59 50.23c-239.23,391.53 -177.72,310.66 -725.59,310.66zm-360.89 -360.89l0 1353.33c682.19,-15.19 360.89,-105.26 360.89,-721.78 697.84,369.26 512.8,721.78 1263.13,721.78 317.72,0 281.14,-260.48 541.32,-451.12 205.42,98.57 289.66,56.37 469.35,162.23 273.12,160.86 14.56,177.21 432.89,288.89 -12.82,-575.62 -428,-1137.55 -541.35,-1624.02l-360.89 0c-75.52,282.86 -173.91,312.53 -304.11,688.33 -145.14,418.82 -91.31,446.49 -417.67,665.03l-380.94 -340.84c0.41,-1.4 711.6,-1012.52 -70.18,-1012.52l-992.44 0 0 270.69z"/>
   <path class="fil0" d="M20865.35 24401.27c0,-437.64 184.91,-716.84 541.35,-812.01 164.96,246.37 225.98,398.62 73.12,797.1 -184.04,479.74 -614.47,133.53 -614.47,14.91zm1714.25 902.21c136.55,-289.76 -437.38,-419.94 -812.01,-451.09 260.77,-1119.29 1256.53,-189.84 1353.36,-1353.36l-1162.44 390.56c-57.75,-597.77 -338.95,-638.81 -822.47,-751.45 -382.19,332.2 -1050.55,1524.1 -611.4,1777.65l1611.21 493.12c419.23,105.29 327,183.83 443.75,-105.43z"/>
   <path class="fil0" d="M33135.73 10145.99c483.5,-112.66 554.85,-273.15 992.47,-180.46 -9.7,434.47 -66.17,561.78 -447.24,651.45 -469.76,110.56 -386.51,-115.81 -545.23,-470.99zm-541.35 -180.46c8.82,396.13 310.15,865.74 449.23,1174.82 150.56,334.57 332.5,1070.32 543.24,990.55 255.34,-103.07 242.3,-42.33 138.21,-476.54 -36.73,-153.2 -177.78,-500.53 -228.44,-606.16 1410.08,0 757.36,625.87 1894.71,360.92 -279.41,-242.87 -613.27,-592.53 -1082.7,-631.58 149.18,-558.69 270.69,-3.58 270.69,-812.01 0,-902.34 -1599.68,-89.74 -1984.94,0z"/>
   <path class="fil0" d="M25737.41 16371.38l-351.12 -368.8c159.44,-244.77 379.23,-534.8 712.01,-623.64 321.58,480.19 64.07,707.89 -360.89,992.44zm-902.24 -270.66c70.51,105.29 2121.71,2302.5 1840.39,1245.58 -91.89,-345.31 -456.85,-343.52 -577.26,-794.46 887.79,-469.77 1507.66,322.63 1714.25,-451.12l-1170.93 -114.78c245.78,-954.93 -533.91,-1785.58 -1806.45,114.78z"/>
   <path class="fil0" d="M57135.13 15920.26c-243.68,0 -248.77,-43.07 -451.12,-90.21 -133.07,-277.36 -218.44,-476.97 -73.02,-785.79 261.48,-555.34 534.86,-567.56 885.03,-567.56 762.85,0 645.72,1443.56 -360.89,1443.56zm-1082.67 -631.55c0,1576.04 2436.03,1337.93 2436.03,-180.46 0,-445.72 -616.54,-1082.67 -1082.67,-1082.67 -676.69,0 -1353.36,608.99 -1353.36,1263.13z"/>
   <path class="fil0" d="M63180.09 27017.73c-1140.75,0 -643.16,-1736.55 451.12,-1263.13 732.88,317.08 600.71,1263.13 -451.12,1263.13zm-270.66 451.12c2329.91,0 1697.44,-2255.57 451.12,-2255.57 -660.33,0 -1169.43,407.75 -1302.95,955.21 -135.73,556.56 407.38,1300.36 851.83,1300.36z"/>
   <path class="fil0" d="M48744.37 11138.43c0,344.96 -27.7,32.84 90.23,270.69 437.46,-36.42 538.84,-504.29 631.55,-902.24l805.92 202.19c-3.17,705.47 -452.5,957.2 6.09,1151.14 269.51,113.99 308.72,-299.82 531.35,-912.21 160.18,-440.56 370.89,-768.28 370.89,-1343.36l-360.89 0 -292.07 803.85c-1492.59,-310.33 -371.27,-705.13 -670.99,-1204.36 -379.02,-631.32 -1112.08,1920.57 -1112.08,1934.3z"/>
   <path class="fil0" d="M52443.53 10777.54c1223.05,0 348.49,2172.91 -556.87,1464.76 -433.4,-339 -175.65,-1464.76 556.87,-1464.76zm-270.69 1984.91c906.59,0 1353.36,-664.83 1353.36,-1353.33 0,-946.49 -1284.43,-1406.81 -1922.25,-659.2 -657.41,770.58 -416.36,2012.53 568.89,2012.53z"/>
   <path class="fil0" d="M30880.16 11860.21c0,-1570.36 1443.56,-486.36 1443.56,180.46 0,854.23 -1443.56,841.57 -1443.56,-180.46zm1804.45 180.46c0,-2342.02 -3337.58,-1230.16 -2003.66,560.07 275.91,370.25 700.53,573.42 1184.57,432.47 427.59,-124.55 819.09,-489.15 819.09,-992.54z"/>
   <path class="fil0" d="M36925.12 9153.52l180.43 0c108.62,466.13 233.52,275.42 270.69,721.78l-451.12 0 0 -721.78zm-631.58 1894.68c711.19,-15.83 299.69,-200.1 590.58,-582.32 175.52,-230.66 614.03,-205.24 853.01,-319.89 128.15,191.38 195.82,451.12 451.12,451.12 752.82,0 -1029.45,-2008.9 -1263.13,-2165.37 -454.14,304.11 -392.1,480.4 -469,1155.05 -52.92,464.49 -162.58,901.7 -162.58,1461.41z"/>
   <path class="fil0" d="M21226.24 22326.13c0,155.19 1965.5,893.11 2075.14,902.24 177.57,-370.07 541.35,-1209.98 541.35,-1714.25 -426.62,35.5 -325.42,89.46 -479.07,513.37 -137.47,379.15 -143.27,376.29 -332.94,659.53 -185.98,-98.41 -213.86,-125.16 -451.12,-180.45 14.45,-648.67 270.66,-585.98 270.66,-1263.13l-270.66 0c-101.33,379.48 24.43,-44.07 -105.16,255.72 -28.67,66.34 -96.01,227.11 -134.91,316.24 -297.59,682.26 -846.46,574.34 -528.66,-157.24 142.19,-327.33 227.38,-430.58 227.38,-865.82 -452.24,37.62 -392.22,233.2 -543.26,629.61 -78.65,206.37 -268.75,642.37 -268.75,904.18z"/>
   <path class="fil0" d="M60292.94 19529.21c-65.22,-280.02 -115.19,-261.32 -180.43,-541.35 227.13,-52.91 536.51,-91.55 721.78,-180.45 -53.04,227.74 -71.23,270.53 -187.98,443.6 -115.24,170.76 -117.64,215.26 -353.37,278.2zm-1443.56 -721.8c149.05,558.28 286.44,270.68 721.78,270.68 118.57,0 473.19,683.22 541.35,812.01 -405.14,605.01 -280.31,473.6 -180.46,902.24 241.63,-161.81 2144.91,-2436.03 1353.36,-2436.03 -732.86,0 -1791.41,300.92 -2436.03,451.1z"/>
   <path class="fil0" d="M24293.85 17905.19l719.17 105.63c-80.05,339.36 -96.65,350.71 -358.28,525.93 -158.21,-236.27 -224.6,-374.01 -360.89,-631.56zm-631.58 -270.68c0,313.88 423.6,814.59 649.48,1154.99 199.49,300.59 437.72,824.98 794.11,920.15 246.19,-294.73 -90.23,-594.34 -90.23,-812.01 0,-100.87 295.29,-597.82 360.89,-721.78 755.75,16.82 630.25,243.34 902.24,-270.67l-1434.1 -370.4c-401.02,-114.78 -1182.39,-506 -1182.39,99.72z"/>
   <path class="fil0" d="M27632.12 14025.58l721.78 360.89 -430.61 471.63c-145.16,-280.28 -185.26,-595.49 -291.17,-832.52zm-541.35 -270.66c0,151.53 262.84,930.04 333.55,1110.03 154.14,392.38 292.27,733.65 388.23,1145.54l360.89 0c0,-480.38 -81.35,-504.68 -90.2,-902.24 295.01,-78.77 390.86,-226.42 541.32,-451.1 332.09,27.63 257.39,90.21 721.78,90.21 344.96,0 32.84,27.7 270.69,-90.21 -265.68,-396.74 -564.96,-374.95 -1025.05,-598.99 -265.45,-129.26 -894.18,-573.93 -1140.32,-573.93 -174.27,0 -360.89,160.87 -360.89,270.69z"/>
   <path class="fil0" d="M20324.03 26747.07c0,-422.42 125.06,-687.15 541.32,-721.78 145.04,258.16 90.23,455.93 90.23,902.21 -232.99,0 -631.55,52.66 -631.55,-180.43zm1894.68 812.01l0 -360.89c-224.47,-18.69 -651.01,-103.19 -812.01,-180.46 0,-430.27 164.76,-1443.56 -631.57,-1443.56 -763.29,0 -1138.1,1433.97 -834.96,1639.85 20.85,14.14 1904.15,524.7 2278.54,345.06z"/>
   <path class="fil0" d="M23301.38 20160.76c-1351.33,-112.45 180.46,-1375.76 180.46,-541.34 0,221.63 -89.2,418.74 -180.46,541.34zm-1082.67 0c458.74,307.19 920.78,533.37 1414.36,844.49 751.44,473.71 842.31,-2.94 468.38,-280.55 -87.39,-64.91 -328.18,-173.4 -439.18,-203.04 43.38,-521.2 578.28,-1068.69 61.79,-1505.36 -933.62,-789.32 -1481.77,860.96 -1505.35,1144.46z"/>
   <path class="fil0" d="M62728.97 23499.03c185.26,-44.34 864.74,-379.1 631.58,721.78l-451.12 0c-148.85,-281.3 -180.46,-282.91 -180.46,-721.78zm-1443.56 270.66c334.62,160.56 636.05,-7.18 992.47,-90.22 86.26,370.3 266.72,842.06 554.03,988.29 91.97,46.78 979.76,254.02 979.76,-717.61 0,-429.99 -181.87,-701.45 -270.69,-1082.69 -444.32,0 -1264.1,309.94 -1865.27,480.53 -325.52,92.35 -359.41,50.53 -390.3,421.7z"/>
   <path class="fil0" d="M46579 9875.3c0,849.32 945.23,1325.33 1555.71,924.16 211.51,-139 241.46,-235.65 248.77,-563.27 -507.28,42.22 -1263.13,861.86 -1263.13,-451.09 0,-581.66 160.41,-700.68 541.32,-902.24 639.36,148.95 488.69,497.05 992.47,631.55 68.16,-142.04 95.6,-122.48 42.58,-315.55 -13.19,-48.1 -199.46,-305.21 -214.42,-322.01 -703.13,-788.84 -1903.3,-157.95 -1903.3,998.45z"/>
   <path class="fil0" d="M57856.91 17273.62c0,671.24 925.69,1395.71 1353.36,812.01 -116.24,-435.32 -41.97,-210.21 -445.75,-276.04 -379.28,-61.86 -456.49,-49.2 -456.49,-445.74 0,-458.57 413.24,-902.24 992.47,-902.24 542.19,0 365.52,716.28 541.35,1082.69 863.67,-230.63 83.96,-1533.81 -721.81,-1533.81 -593.29,0 -1263.13,637.28 -1263.13,1263.13z"/>
   <path class="fil0" d="M44503.86 10416.65c667.57,0 1276.15,183.01 1714.25,90.23 -76.59,-920.6 -1169.34,20.74 -1169.19,-789.92 0,-42.19 103.3,-725.54 128.01,-885.43 60.74,-393.3 110.68,-533.75 -41.49,-850.91 -464.77,108.28 -338.13,35.42 -489.35,1044.46 -84.76,565.54 -142.23,740.89 -142.23,1391.57z"/>
   <path class="fil0" d="M28173.44 12852.68c423.14,283.34 314.91,92.02 721.81,-180.46 526.33,385.65 968.43,1581.18 1348.91,1508.29 678.09,-129.95 -636.01,-1042.47 -807.59,-1778.95 214.55,-320.38 324.73,-196.83 360.89,-631.55 -494.26,41.12 -1459.19,836.53 -1624.02,1082.67z"/>
   <path class="fil0" d="M39090.46 51287.82c0,1172.39 -184.27,992.44 1082.69,992.44 272.76,0 249.46,-106.16 270.67,-360.89l-992.45 0 0 -360.89 902.22 0c-44.17,-530.89 -299.18,-360.89 -902.22,-360.89l0 -270.66c419.38,0 697.39,51.33 992.45,-90.23 -230.31,-314.34 -330.69,-180.46 -1263.13,-180.46 -23.48,282.22 -90.23,320.51 -90.23,631.58z"/>
   <path class="fil0" d="M40624.27 51648.71c0,693.24 -20.25,484.52 180.44,631.55 288.07,-211.04 180.45,-412.86 180.45,-902.24 449.54,301.05 373.84,761.15 902.24,902.24 180.74,-321.71 90.21,-1217.96 90.21,-1624.02l-360.89 0c9.1,408.03 90.23,358.57 90.23,812.01 -302.38,-80.74 -556.08,-529.35 -631.56,-812.01l-360.89 0c0,457.44 -90.23,491.58 -90.23,992.47z"/>
   <path class="fil0" d="M34579.32 51919.37c-845.57,0 -630.89,-992.44 -90.23,-992.44 605.41,0 554.52,992.44 90.23,992.44zm-902.24 -541.35c0,1250.96 1624.02,1112.11 1624.02,90.23 0,-1060.72 -1624.02,-1124.41 -1624.02,-90.23z"/>
   <path class="fil0" d="M26820.11 51107.36c0,529.36 681.63,297.57 992.44,721.78 -479.79,269.57 -678.76,-60.61 -992.44,-270.66 0,454.88 14.78,721.78 451.12,721.78 1206.2,0 1005.59,-1081.7 -90.23,-1172.9l0 -180.43c592.37,13.2 395.03,159.33 812.01,270.66 -15.96,-716.36 -363.45,-541.35 -1082.7,-541.35 -47.13,202.35 -90.2,207.44 -90.2,451.12z"/>
   <path class="fil0" d="M25286.29 51017.13c0,306.32 -53.22,418.23 -61.04,561.25 -14.35,262.78 54.27,306.93 61.04,611.65l992.47 90.23c272.79,0 249.49,-106.16 270.66,-360.89 -618.71,0 -947.35,180.9 -992.44,-360.89l902.24 0c-44.19,-530.89 -299.2,-360.89 -902.24,-360.89l0 -270.66 992.44 0 0 -270.69 -1263.13 0 0 360.89z"/>
   <path class="fil0" d="M32143.29 51919.37c-737.59,0 -377.65,-240.86 -360.92,-992.44 356.21,0 366.11,28.36 631.58,90.2 31.58,131.89 279.64,902.24 -270.66,902.24zm-721.81 -992.44c0,1107.86 -149.97,1353.33 631.58,1353.33 922.7,0 1024.69,-1624.02 90.23,-1624.02 -511.35,0 -721.81,-70.87 -721.81,270.69z"/>
   <path class="fil0" d="M166395.58 42626.38c0,983.38 1263.12,873.72 1263.12,90.22 0,-977.19 -1263.12,-685.84 -1263.12,-90.22z"/>
   <path class="fil0" d="M52443.53 36220.53c386.67,0 627.92,-236.65 688.02,-578.56 142.07,-808.15 -1187.02,-964.75 -1267.02,-124.84 -22.19,233.07 265.4,703.4 579,703.4z"/>
   <path class="fil0" d="M45225.65 51107.36c220.86,161.82 194.19,122.81 270.68,451.12l-360.89 0c20.23,-243.14 41.15,-246.16 90.21,-451.12zm360.91 721.78c295.65,558.77 687.15,709.69 397.46,-20.69 -152.83,-385.34 -408.86,-813.85 -487.69,-1152.21 -444.49,9.9 -434.24,77.47 -572.8,419.67 -118.06,291.58 -213.89,505.72 -316.24,787.2 -281.56,774.39 202.91,170.53 538.59,68.23 236.8,-72.17 160.79,32.1 440.68,-102.2z"/>
   <path class="fil0" d="M29707.26 50926.93c0,565.59 -97.7,1353.33 812.01,1353.33 212.81,0 401.42,-176.98 541.32,-270.66l0 -1353.36c-449.56,37.42 -283.35,-15.11 -325.67,575.9l-35.22 687.23c-646.56,0 -631.55,-78.26 -631.55,-721.78 0,-392.86 297.54,-494.06 -270.69,-541.35 -61.81,110.08 -90.2,96.52 -90.2,270.69z"/>
   <path class="fil0" d="M51902.18 38295.67c0,1029.34 1235.89,808.27 1226.23,90.61 -10.82,-801.83 -1226.23,-782.83 -1226.23,-90.61z"/>
   <path class="fil0" d="M55059.99 52099.83c661.88,317.57 768.66,180.46 1172.9,-90.23l0 -1353.36 -270.66 0c-66.73,801.81 -20.15,1263.13 -360.89,1263.13 -875.64,0 365.06,-1238.91 -721.78,-1263.13 137.72,287.03 83.65,1028.17 180.43,1443.59z"/>
   <path class="fil0" d="M37646.9 52280.26c377.51,0 510.91,-266.05 541.35,-631.55 -612.61,50.97 -165.4,270.66 -721.81,270.66 -492.45,0 -539.84,-992.44 90.23,-992.44 210.99,0 267.85,185.91 631.58,270.66 -92.31,-1109.19 -1933.36,-558.33 -1313.24,679.05 130.23,259.89 428.16,403.62 771.89,403.62z"/>
   <path class="fil0" d="M50639.05 51648.71c0,243.68 43.1,248.77 90.23,451.12 661.86,317.57 768.66,180.46 1172.9,-90.23l0 -1353.36 -270.66 0c0,565.49 16.11,806.69 -90.23,1263.13l-541.35 0 0 -1263.13 -360.89 0 0 992.47z"/>
   <path class="fil0" d="M42248.29 51558.48c0,807.74 1480.62,968.12 1393.51,250.59 -59.76,-492.37 -204.83,110.3 -671.73,110.3 -525.1,0 -435.39,-992.44 0,-992.44 426.37,0 360.59,174.22 721.79,270.66 -20.26,-243.63 -42.31,-245.44 -90.23,-451.12 -580.84,-135.32 -1353.34,-256.21 -1353.34,812.01z"/>
   <path class="fil0" d="M49646.61 52280.26c88.82,0 404.24,-104.06 472.22,-159.33 197.75,-160.71 152.43,-162.56 159.33,-472.22 -399.58,93.09 -1282.56,910.68 -902.24,-721.78 873.37,0 365.98,127.47 902.24,270.66 -20.69,-928.55 -1480.13,-648.38 -1388.5,321.97 43.35,459.17 349.31,760.7 756.95,760.7z"/>
   <path class="fil0" d="M35571.76 11318.89c306.46,-25.5 330.3,-68.77 541.35,-180.46 -635.42,-1324.25 -406.95,-2007.93 -1082.7,-2165.34 -87.54,413.42 63.3,667.23 199.38,1153.95 94.22,337.1 310.38,812.08 341.97,1191.85z"/>
   <path class="fil0" d="M52263.07 51107.36c0,1259.86 -119.28,1172.9 992.47,1172.9 272.76,0 249.46,-106.16 270.66,-360.89l-902.24 0 0 -1263.13 -270.66 0c-47.13,202.35 -90.23,207.44 -90.23,451.12z"/>
   <path class="fil0" d="M47300.78 52280.26l270.69 0c0,-1372.54 344.8,-780.47 541.32,-1624.02 -556.28,46.29 -287.64,250.64 -721.78,541.35 -42.07,-62.81 -287.03,-468.51 -327.61,-504.88 -642.45,-575.44 94.27,802.6 100.84,821.86 58.72,171.56 92.2,575.26 136.54,765.69z"/>
   <path class="fil0" d="M28714.79 50926.93c0,1344.3 -108.64,1314.25 360.89,1353.33l0 -1353.33c521.48,0 356.8,78.11 541.35,-270.69l-1443.59 0c183.66,274.25 113.63,261.15 541.35,270.69z"/>
   <path class="fil0" d="M53887.09 50926.93l0 1353.33c469.53,-39.08 360.89,-9.03 360.89,-1353.33l451.12 0 0 -270.69 -1263.13 0c96.78,362.48 24.5,261.18 451.12,270.69z"/>
   <path class="fil0" d="M33045.5 51829.14c0,394.78 110.48,393.14 270.69,451.12 166.77,-347.61 56.49,-546.15 97.31,-992.87 41.23,-451.58 258.79,-617.18 -368,-631.15l0 1172.9z"/>
   <path class="fil0" d="M38458.91 52280.26c254.7,-21.2 360.89,2.1 360.89,-270.66l0 -1353.36 -360.89 0 0 1624.02z"/>
   <path class="fil0" d="M43962.54 50926.93l0 1082.67c0,272.76 106.16,249.46 360.89,270.66l0 -1624.02c-254.73,21.21 -360.89,-2.09 -360.89,270.69z"/>
   <path class="fil0" d="M35481.53 52280.26c0,344.96 -27.7,32.84 90.23,270.69 213.81,-57.11 322.76,-138.67 336.13,-393.96 13.97,-267.18 -143.22,-231.3 -426.36,-237.62l0 360.89z"/>
   <path class="fil0" d="M167703.74 64821.3l-315.72 -106.21c0,177.92 89.38,106.21 315.72,106.21z"/>
   <path class="fil0" d="M181282.41 44756.17c0,-174.19 51.71,-144.88 -94.09,-144.88 0,174.19 -51.71,144.88 94.09,144.88z"/>
   <path class="fil0" d="M144832.2 37467.77c-163.93,0 -129.87,-44.93 -129.87,106.09 163.91,0 129.87,44.96 129.87,-106.09z"/>
   <path class="fil0" d="M178936.61 50986.65c-147.11,0 -105.83,-34.4 -105.83,120.71 147.11,0 105.83,34.4 105.83,-120.71z"/>
   <path class="fil0" d="M180688.71 37573.86c0,-137.88 29.23,-92.74 -128.08,-92.74 0,137.9 -29.23,92.74 128.08,92.74z"/>
   <path class="fil0" d="M107781.26 37573.86c0,-139.77 31.33,-97.8 -121.07,-97.8 0,139.79 -31.33,97.8 121.07,97.8z"/>
   <path class="fil0" d="M94769.98 84309.56c0,-149.67 39.84,-116.52 -101.95,-116.52 0,149.64 -39.84,116.52 101.95,116.52z"/>
   <path class="fil0" d="M168238.03 37573.86c0,-135.01 28.11,-89.62 -128.21,-89.62 0,135.04 -28.13,89.62 128.21,89.62z"/>
   <polygon class="fil0" points="156384.79,34957.4 156290.57,34865.97 "/>
   <polygon class="fil0" points="181192.21,45426.7 181081.6,45513.52 "/>
  </g>
 </g>
</svg>
