<?xml version="1.0" encoding="UTF-8"?>
<!DOCTYPE svg PUBLIC "-//W3C//DTD SVG 1.1//EN" "http://www.w3.org/Graphics/SVG/1.1/DTD/svg11.dtd">
<!-- Creator: CorelDRAW (Versión de evaluación) -->
<svg xmlns="http://www.w3.org/2000/svg" xml:space="preserve" width="215.9mm" height="279.4mm" version="1.1" style="shape-rendering:geometricPrecision; text-rendering:geometricPrecision; image-rendering:optimizeQuality; fill-rule:evenodd; clip-rule:evenodd"
viewBox="0 0 21590 27940"
 xmlns:xlink="http://www.w3.org/1999/xlink"
 xmlns:xodm="http://www.corel.com/coreldraw/odm/2003">
 <defs>
  <style type="text/css">
   <![CDATA[
    .fil0 {fill:#3497AC}
   ]]>
  </style>
 </defs>
 <g id="Capa_x0020_1">
  <metadata id="CorelCorpID_0Corel-Layer"/>
  <g id="_2491984086608">
   <path class="fil0" d="M7646.36 27822.48c0,-687.88 23.11,-1134.55 422.67,-1693.74 543.76,-760.99 1954.19,-857.84 2611.7,-0.25 766.68,1000 631.47,3634.02 -1305.98,3634.02 -574.25,0 -919.45,-208.19 -1261.62,-572.58 -253.78,-270.25 -466.77,-847.38 -466.77,-1367.45zm6349.2 -70.55l139.72 -39.59 1.37 110.14 -141.09 0 0 -70.55zm-6807.75 70.55c23.42,-100.53 54.54,-211.64 176.37,-211.64 81.27,0 105.82,24.54 105.82,105.82 0,149.02 -136.82,105.82 -282.19,105.82zm5643.73 -634.92c12.69,-152.58 94.34,-234.22 246.91,-246.92 -38.19,143.05 -130.5,185.32 -246.91,246.92zm-564.38 -1657.85c668.28,0 1519.32,-32.03 1765.67,844.59 84.56,300.89 46.68,585.12 -58.41,862.67 -78.06,206.17 -296.45,464.49 -445.92,612.27l-793.96 758.07c-465.93,466.69 -681.52,449.74 414.46,449.74 352.73,0 705.47,0 1058.2,0 32.45,139.29 124.71,634.92 -105.82,634.92l-2821.87 0c-198.23,0 -137.81,-340.3 -118.14,-435.6 41.2,-199.54 150.49,-277.58 391.78,-490.06 70.14,-61.77 88.05,-62.23 158.19,-124l1040.83 -1005.02c461.82,-461.47 467.37,-503.51 467.37,-978.83 0,-139.41 -103.55,-268.17 -198.14,-330.96 -315.19,-209.23 -894.09,-166.79 -1227.81,69.24 -311.32,220.2 -172.27,197.39 -760.99,-196.84 192.86,-364.49 824.01,-670.19 1234.56,-670.19zm-4832.44 1093.47c0,554.62 -152.34,798.07 -485.2,1172.65 -80.37,90.44 -159.63,159.58 -246.69,247.14 -175,176.02 -332.63,297.11 -511.49,476.16 -90.87,90.96 -147.16,160.64 -253.1,240.72 -128.45,97.09 -192.26,100.82 -196.64,297.2l1834.22 0c0,418.22 59.79,634.92 -105.82,634.92l-2821.87 0c-172.46,0 -247.67,-414.66 61.45,-714.57 139.03,-134.88 248.92,-265.82 397.1,-378.91l589.25 -539.5c226.09,-188.99 794.06,-745.77 876.54,-1029.16 135.3,-464.87 -141.67,-829.93 -619.23,-829.93 -1345.94,0 -493.82,708.61 -1552.02,0 131.18,-247.93 408.64,-427.03 669.58,-529.7 138.53,-54.51 308.94,-111.12 468.06,-131.81 776.11,-100.9 1895.86,128.05 1895.86,1084.79zm9700.17 -317.46c-491.73,-235.94 -1373.88,-221.34 -1729.17,281.42 -225.11,318.55 -281.41,446.55 -281.41,988.42 296.51,-69.08 275.42,-388 1164.02,-388 1416.49,0 1702.44,1602.73 882.85,2223.24 -662.57,501.64 -1739.61,498.57 -2391.18,-150.55 -562.95,-560.83 -629.63,-1765.15 -356.35,-2491.16 258.58,-686.95 928.12,-1239.38 1617.76,-1239.38 558.57,0 879.41,-50.95 1375.66,211.64 -36.45,156.47 -200,441.64 -282.18,564.37zm-5396.83 -8500.88c275.59,73.59 1042.01,1272.05 1164.06,1516.72 1027.21,2059.17 453.15,4060.51 -705.49,5856.83 -1.53,2.36 -69.05,105.4 -70.56,107.06l-28.25 25.64c-3.87,2.49 -63.32,96.53 -47.17,-47.17l272.18 -1512.76c236.72,-1742.63 160.96,-3438.43 -309.98,-5127.63l-274.79 -818.69zm-317.46 -11075.82c287.72,-429.67 1738.33,-987.66 2328.05,-987.66 760.25,0 1273.99,-0.14 1926.39,436.92 1090.47,730.54 837.17,1257.3 1644.29,1918.31 800.67,655.73 2546.82,1268.66 3578.05,1783.5 996.89,497.7 564.48,515.31 715,1048.68 143.58,508.78 707.69,604.85 707.69,1232.34 0,759.69 -1169.42,1006.5 -1762.51,1024.08 -150.97,4.47 -309.41,-4.45 -461.12,-2.56 -200.3,2.49 -257.34,54.16 -450.78,32.73l-3463.15 -278.24c-294.43,0 -1171.23,24.65 -1340.39,105.82 84.81,160.28 -77.51,53.99 338.7,155.12 649.97,157.93 1510.45,426.19 2062.52,547.72 247.19,54.41 622.77,178.99 879.2,178.99l-1693.28 0.16c-154.41,-8.12 -147.23,-30.04 -317.36,-35.38 -1630.73,-51.18 -3358,-154.26 -4718.21,1101.79 -130.95,120.92 -184.84,207.33 -299.71,335.2 -179.43,199.74 -358.02,491.98 -496.25,738.32 -72.24,128.72 -143.12,312.55 -195.42,439.5 -335.93,815.31 -343.08,1275.86 -392.94,2112.41l0.3 563.73c-94.64,-34.25 -89.06,-47.4 -199.97,-258.58 -413.29,-786.86 -752.4,-1452.9 -752.4,-2457.46 0,-1139.61 485.16,-2269.45 1278.64,-3059.98 105.9,-105.51 258.46,-182.26 273.38,-361.54 -869.62,0 -2212.95,534.77 -2757.16,1263.99 -139.52,186.94 -379.47,675.31 -427.4,736.62 -51.41,65.76 -10.61,49.66 -95.86,80.52 0,-1628.35 423.49,-2571.05 1254.24,-3684.04l376.41 -434.88c37.54,-34.33 533.94,-396.07 309.38,-396.07 -472.86,0 -1256.42,281.65 -1599.51,446.33 -308.77,148.21 -825.21,476.83 -1088.3,710.64 -93.11,82.76 -41.32,78.69 -169.32,112.87 11.29,-135.69 149.33,-324.72 209.55,-425.37 88.71,-148.26 163.76,-257.78 263.14,-407.05 293.38,-440.68 816.23,-1097.6 1195.56,-1414.67 1107.45,-925.72 1852.26,-1472.79 3344.65,-1911.08 179.09,-52.59 334.44,-94.18 539.83,-130.36 583.98,-102.87 1021.26,-147.8 1608.62,19.57 179.64,51.19 315.57,145.9 447.45,258.03 266.37,226.47 437.07,470.52 896.75,514.18 836.51,79.44 1009.34,47.7 1764.1,352.31 95.92,38.72 490.01,246.74 342.9,18.79l-327.16 -387.27c-252.97,-366.33 -435.02,-686.14 -734.17,-1029.5 -325.48,-373.56 -552,-581.38 -1100.4,-663.25 -829.34,-123.82 -2082.43,-98.5 -2923.02,10.39 -162.63,21.07 -372.38,45.38 -519,45.38zm-5573.18 -3456.79c0,680.39 10.24,1044.97 215.42,1689.34 185.64,583 265.08,601.54 490.05,1026.71 -620.83,-13.83 -1107.91,-1021.42 -1254.44,-1602.71 -317.04,-1257.7 81.8,-2732.89 548.97,-3899.94 57.19,-142.85 115.49,-287.68 175.39,-424.26 49.7,-113.36 152.21,-314.39 177.35,-422.3 136.87,11.39 100.12,2.32 208.2,144.53l662.25 960.32c543.47,913.47 1133.34,2034.36 1626.67,2817.78l405.9 581.76c113.56,139.15 188.79,181.02 201.02,328.06 -235.1,-54.77 -787.36,-372.28 -993.17,-523.57 -792.31,-582.39 -1472.28,-1490.05 -1838.27,-2394.53 -58.52,-144.61 -25.13,-183.4 -166.78,-221.23 -97.43,71.39 -60.08,49.11 -103.12,179.07 -29.7,89.67 -50.12,149.59 -77.74,239.73 -137.19,447.72 -277.7,1040.04 -277.7,1521.24zm12592.58 -3950.62l-1199.29 0c-82.57,0 -141.1,-58.53 -141.1,-141.09l0 -5573.19c0,-108.31 32.66,-211.64 141.1,-211.64 908.62,0 2713.97,-88.68 3484.56,148.59 1874.17,577.08 1771.86,2634.88 1040.03,3388.35 -369.43,380.36 -649.77,533.25 -1215.09,689.67 -361.18,99.93 -1334.7,104.89 -1796.8,107.96 -285.59,1.89 -207.59,32.12 -207.59,744.79 0,329.93 68.84,846.56 -105.82,846.56zm-17671.94 -4726.63c-61.47,263.84 -61.47,864.91 0,1128.75 396.41,0 2092.99,-22.35 2446.55,22.58 304.4,38.69 234.23,-119.67 234.23,1035.62 0,136.09 -112.39,109.89 -243.87,108.87l-1872.54 -3.05c-718.58,-0.21 -599.64,-179.41 -599.64,1058.2 0,95.27 16.84,97.26 35.27,176.37l2931.35 -3.66c306.37,14.76 207.98,314.63 207.98,1026.58 0,95.27 -16.84,97.26 -35.27,176.37l-4127.11 0.12c-197.49,1.05 -458.43,51.26 -458.43,-141.21l0 -5643.74c0,-82.57 58.53,-141.09 141.09,-141.09l4232.81 0c81.27,0 105.82,24.54 105.82,105.82l0 1058.2c-244.47,0 -420.11,35.64 -705.46,35.29l-2292.78 -0.02zm-3809.52 -2751.32l0 9029.98c0,127.87 29.62,196.89 70.55,282.19l5502.64 0c-91.85,125.36 -701.79,273.5 -868.98,330.31 -595.06,202.21 -1184.8,463.05 -1753.3,715.84 -296.4,131.8 -573.39,233.48 -858.45,376.11 -269.39,134.8 -1830.7,854.5 -1995.87,1072.92 -109.61,144.96 -41.93,348.24 -66.48,568.44 -110.73,993.19 -108.22,3032.22 0.01,3996.19 58.2,518.36 15.56,1048.58 90.68,1567.17 71.77,495.56 62.79,1064.27 151.68,1506.17l226.31 1466.81c313.05,1884.7 830.13,3735.79 1561.69,5492.98l408.65 861.19c716.02,1432.02 1736.66,3084.54 2830.28,4259.67 396.3,425.83 791.04,878.14 1216.63,1287.78l669.29 600.55c91.07,76.57 127.83,128.1 221.96,201.32 96.14,74.79 130.33,145.09 247.03,176.25 -16.79,201.73 -211.58,265.84 -324.49,416.26 -51.22,68.25 -76.63,100.36 -98.79,183.39 75.05,112.08 640.26,493.82 776.01,493.82 102.82,0 332.36,-317.46 529.1,-317.46 101.36,0 881.83,524.13 881.83,599.65 0,215.31 -429.26,620.38 -603.96,736.42 -141.92,94.26 -160.73,77.83 -382.74,75.81l-4515.94 -0.94c-832.84,-0.23 -670.19,29.56 -670.19,881.83 0,265.3 286.49,246.92 493.82,246.92 0,893.67 35.28,1674.21 35.28,2574.95 0,870.08 0,1740.15 0,2610.23 393.04,91.57 1312.58,35.27 1763.67,35.27 209.21,0 141.24,-361.52 141.09,-564.37 -0.47,-670.56 -62.54,-1549.98 4.31,-2182.64 42.34,-400.62 192.02,-708.22 433,-1013.2 404.83,-512.34 1317.56,-621.58 1879.77,-320.54 329.1,176.22 522.29,407.51 681.8,729.13 271.37,547.17 175.93,2004.37 175.72,2716.7 -0.06,206.91 -72.01,599.65 141.09,599.65 583.8,0 2885.95,56.63 3280.42,-35.27 64.55,-775.7 -134.9,-2595.28 105.98,-3174.45 173.1,-416.2 451.43,-722.5 865.15,-898.51 425.8,-181.14 1061.72,-112.11 1428.51,121.29 225.89,143.73 437.01,363.21 561.8,602.22 393.85,754.36 23.7,2571.51 213.16,3384.72 269.09,0 393.34,35.27 670.19,35.27l1904.76 0c320.77,0 496.48,-35.27 811.29,-35.27l35.28 -705.46c-0.36,-608.76 -66.82,-1696.59 7.98,-2214.25 56.78,-393.04 275.44,-670.78 546.78,-934.7 543.3,-528.45 1583.97,-446.13 2118.13,88.03 88.41,88.41 243.58,312.92 303.43,437.32 273.2,567.92 164.14,2075.77 162.99,2799.98 -1.11,695.42 -142.97,529.08 1728.41,529.08 95.26,0 97.25,-16.84 176.36,-35.27 0,-1123.21 -57.52,-4034.74 35.28,-5149.91 191.89,0 332.89,-10.25 458.55,-70.55 63.92,-274.36 35.27,-595.69 35.27,-881.84 0,-216.49 -339.71,-176.98 -564.33,-176.41 -488.87,1.26 -2872.93,40.84 -3097.87,-6.18 -112.69,-23.56 -140.24,-87.62 -203.89,-184.12 -466.6,-707.43 -1529.53,-747.95 -2236.2,-374.03 8.52,-382.2 482.63,-594.16 761.44,-790.58 547.9,-386 725.06,14.57 1108.05,14.57 127.89,0 423.28,-625.18 423.28,-740.74 0,-120.43 -142.47,-187.31 -246.91,-211.64 15.28,-183.62 153.45,-203.41 273.51,-326.13 123.46,-126.18 215.06,-178.43 335.47,-299.46 618.28,-621.42 1233.95,-1237.13 1784.66,-1919.03 91.95,-113.85 175.56,-205.13 271.89,-327.77 1631.98,-2077.77 2827.95,-4435.18 3557.49,-6989.24 240.78,-842.96 441.54,-1647.16 584.96,-2519.09 15.89,-96.59 22.37,-166.81 44.68,-272.78 19.27,-91.48 51.07,-138.28 60.91,-256.55 -189.87,15.8 -238.77,250.78 -338.17,402.56 -286.59,437.59 -567.94,910.66 -939.95,1282.28 -138.43,138.28 -213.36,248.96 -353.19,387.54 -132.59,131.4 -237.79,239 -370.53,370.22 -306.08,302.6 -309.74,612.57 -462.2,1019.28l-619.59 1602.63c-77.92,187.68 -164.16,315.38 -242.25,498.49 -43.21,101.31 -54.79,149.44 -106.79,245.94 -56.2,104.29 -85.43,133.91 -142.21,245.8 -415.34,818.31 -901.79,1541.03 -1406.03,2297.68 -437.08,655.87 -942.6,1264.84 -1449.27,1866.42 -69.99,83.11 -115.52,110.19 -186.32,201.69 -75.55,97.66 -82.9,102.99 -165.2,187.53l-899.07 970.42c-132.06,132.06 -238.3,238.31 -370.37,370.37 -147.26,147.26 -219.38,223.68 -354.24,386.5 -228.88,276.32 -1092.98,964.2 -1391.92,1218.31 -82.85,70.43 -127.67,121.76 -255.6,132.4 -440.03,-831.61 -294.93,-301.09 252.05,-1652.71 360.22,-890.12 514.14,-2170.24 331.85,-3200.67 -6.76,-38.23 -59.18,-222.54 -19.53,-261.25 33.55,-32.76 50.72,-1.66 94.37,76.76 335.33,602.44 588.19,1277.17 783.4,1937.88 80.26,271.65 115.17,562.35 180.43,842.5 182.81,-48.81 213.51,-269.51 277.18,-428.3 811.06,-2022.65 186.25,-3569.71 -615.02,-5477.24 -145.61,-346.63 -312.89,-738.01 -404.33,-1112.43 -99.55,-407.65 -88.54,-917.53 185.67,-1192.85 293.5,-294.7 636.08,-383.72 1082.49,-434.27 379.59,-42.98 1046.51,-81.25 1474.96,-22.52 653.17,89.52 2165.97,61.89 2836.43,-145.81 1188.47,-368.18 1987.08,-1482.5 2647.73,-2466.9l475.09 -830.03c141.96,-306.63 255.97,-593.17 319.61,-950.44 148,-830.88 -390.19,-1150.29 -1013.3,-1472.03l-870.34 -434.78c-862.72,-434.87 -1783.76,-768.19 -2645.86,-1198.94 -142.55,-71.22 -271.96,-148.1 -406.35,-228.56 -1679.68,-1005.68 -888.46,-1503.01 -2069.25,-2445.73 -60.12,-48 -123.76,-91.44 -181.59,-135.88l-564.01 -388.37c-514.35,-343.87 -1081.53,-634.02 -1657.33,-917.62l-887.4 -382.44c-639.63,-255.21 -1260.92,-460.76 -1922.48,-652.47 -976.11,-282.87 -1806.19,-613.29 -2431.7,-1448.38 -822.97,-1098.73 -1160.28,-1840.46 -2228.76,-2921.14l-315.11 -319.81c-234.53,-194.26 -427.86,-413.91 -675.16,-594.67 -66.58,-48.67 -120.82,-83.85 -186.12,-131.34 -110.37,-80.28 -86.37,-73.66 -242.67,-110.07 -353.19,527.44 -176.37,187.99 -176.37,881.83l-28.04 959.62c-20.05,221.03 58.2,269.07 -179.12,279.43 -248.75,10.86 -712.13,-81.44 -856.97,60.14 -157.52,153.97 -444.3,1057.24 -527.67,1306.54 -266.96,798.29 -524.6,2117.04 -524.6,3179.1 0,1528.81 363.77,1209.38 -203.81,1700.95l-315.76 319.16c-718.97,748.18 -1368.99,1605.25 -1832.04,2541.85 -340.43,688.58 -1211,2500.71 -1211,3198.17 189.09,-15.73 287.2,-244.77 398.41,-377.6 321.74,-384.28 712.83,-639.83 1004.14,-935.9 84.33,-85.71 100.38,-136.03 220.03,-167.98 -4.59,206.11 -146.96,380.08 -221.97,554.05 -244.91,567.96 -416.2,1120.97 -611.37,1716.67 -132.09,403.14 -230.58,839.26 -289.89,1262.14 -226.36,1613.91 -280.45,3362.08 464.45,4850.79 358.97,717.42 880.4,1322 1547.55,1768.15l511.45 299.83c126.59,54.9 181.85,75.91 293.91,133.53 393.13,202.17 82.53,-132.83 -1.4,-249.66 -54.36,-75.67 -126.96,-174.93 -174.2,-249.1 -351.26,-551.5 -599.22,-1104.25 -770.93,-1733.47 -235.07,-861.39 -170.86,-1619.23 -116.6,-2466.19 13.17,-205.48 -53.37,-234.72 109.74,-278.27 0,1692.13 1110.04,3385.17 2248.67,4523.81l1026.27 949.04 1465.66 1074.03c454.46,299.93 865.15,632.78 1301.26,956.23l463.35 383.2c78.76,61.18 83.1,59.27 153.32,128.87 383.73,380.29 755.78,744.15 1058.97,1198.52 106.26,159.25 385.32,528.42 430.63,698.11 -137.24,-31.97 -1319.59,-848.4 -2390.14,220.08 -114.22,113.99 -173.15,230.36 -290.62,309.02 -344.61,-80.28 -435.52,-400.26 -1011.37,-717.02 -183.25,-100.8 -343.48,-249.46 -496.3,-385.54 -90.71,-80.78 -142.97,-111.23 -229.56,-193.71 -96.64,-92.05 -152.89,-122.09 -246.92,-211.64l-2786.57 -2469.16 -1058.22 -1128.73c-755.61,-793.4 -1478.49,-1962.61 -1871.23,-2961.21 -199.42,-507.05 -550.15,-2224.64 -674.44,-2852.9 -571.36,-2888.16 -867.01,-5586.11 -867.01,-8727.34 0,-205.5 -18.02,-423.49 9.64,-625.28 24.76,-180.69 7.25,-429.95 35.27,-634.92 17.73,-129.71 7.33,-485.62 81.89,-588.31 231.06,-318.2 2145.19,-1076.99 2664.81,-1285.8l978.18 -362.21c598.13,-214.79 456.53,-189.72 730.69,-1279.89 149.91,-596.11 73.57,-620.41 719.98,-620.41 77.29,-331.8 340.44,-1042.71 473.17,-1361.04 77.37,-185.54 161.75,-236.67 161.75,-473.18 -98.24,0 -211.64,25.2 -211.64,-105.82l0 -5714.28c0,-81.28 24.54,-105.82 105.82,-105.82 1222.04,0 977.51,-138.02 1697.69,771.44l524.76 639.26c59.07,75.81 119.1,155.89 187.02,236.26 250.83,296.79 474.36,565.23 718.74,868.56l519.55 644.47c70.96,92.51 114.62,159.55 232.31,190.98 0,-605.24 -57.97,-2950.78 35.27,-3350.97 450.7,0 1021.52,-55.45 1410.92,35.27 0,1869.36 -27.6,3741.22 2.07,5610.53 6.38,402.41 -25.18,280.12 -1060.26,280.12 -211.63,0 -291.17,-196.49 -402.89,-337.85 -326.55,-413.15 -2367.24,-2784.11 -2418.98,-2977.84l-141.09 0 0 1164.02c335.39,-27.91 12.31,-404.81 1068.63,483.39 1155.78,971.83 2014.03,2259.01 2846.7,3502.5l599.65 0c-14.13,-169.85 -252.2,-390.08 -317.46,-670.2 109.69,-73.45 177.79,-164.9 302.54,-261.83 224.72,-174.6 803.48,-629.03 826.21,-902.19l-670.2 0c-40.93,-85.3 -70.54,-154.31 -70.54,-282.19l0 -5502.64c0,-82.57 58.52,-141.09 141.09,-141.09l1305.11 0 0 5079.36c121.13,-81.11 232.7,-236.98 322.42,-347.78 61.43,-75.87 277.23,-306.25 277.23,-392.96l0 -4338.62 4373.9 0c172.2,0 105.94,364.3 105.82,529.09 -0.15,211.64 0,423.29 0,634.93 -376.66,87.75 -2103.4,44.17 -2717.27,34.05 -446.07,-7.36 -316.24,8.28 -316.24,1024.15 0,186.32 462.85,105.83 599.65,105.82l2081.12 35.27c0,1330.24 177.08,1128.84 -599.64,1128.75 -674.38,-0.08 -1420.77,-19.68 -2081.13,35.27 0,1497.63 -350.32,1199.3 2081.13,1199.3l1058.2 35.27c0,1362.13 171.94,1164.25 -564.38,1164.02l-1340.38 0c-1073.36,-0.01 -501.96,-111.41 -531.18,1554.11 -6.31,359.32 -41.21,250.14 742.82,315.38l0 776.01c198.48,95.24 619.82,111.12 897.15,161.05 1976.74,355.89 3903.21,932.58 5687.21,1826.02l1224.76 644.72c206.33,113.76 164.53,420.79 162.3,648.99 -2.23,227.1 34.48,286.96 37.03,492.07 6.42,515.26 -58.83,1053.92 -73.09,1552.28 -10.59,370.07 -3.88,654.88 -56.52,1005.68 -56.91,379.29 448,576.26 773.06,819.75 172.6,129.29 449.91,384.2 660.26,433.21 89.37,-186.25 95.21,-576.08 105.99,-775.85 7.25,-134.14 -1.55,-288.34 -1.38,-424.66 0.27,-204.02 32.26,-240.34 37.64,-420.91l69.35 -2611.42c-0.75,-329.82 36.08,-516.64 35.36,-846.47 -2.06,-946.56 2.47,-822.73 -606.08,-1192.95 -97.99,-59.61 -176.4,-98.11 -276.03,-147.25l-882.06 -458.33c-1215.5,-540.49 -2436.6,-1072.93 -3727.59,-1422.33 -193.92,-52.48 -108.15,13.8 -152.02,-94.88 84.52,-34.92 4427.93,-0.17 5008.82,0 206.9,0.06 599.64,72.01 599.64,-141.1l0 -9241.62c0,-317.98 -414.41,-211.64 -952.38,-211.64l-5890.65 0c-716.36,0 -1674.84,54.97 -2361.46,-1.85 -1105.23,-91.47 -3424.68,-33.42 -4657.94,-33.42 -4503.22,0 -9006.45,0 -13509.68,0 -244.44,0 -317.46,73.02 -317.46,317.46z"/>
   <path class="fil0" d="M9974.4 556.18c0,234.26 313.96,541.17 484.79,679.23 398.41,321.98 1371.84,516.24 1997.27,718.78 381.7,123.61 757.5,256.03 1115.99,436.04 209.85,105.37 371.51,233.98 528.93,247.08 213.13,-444.19 239.36,-2796.67 -35.27,-3315.7 -516.63,0 -1038.13,-6.92 -1554.11,2.08 -187.32,3.27 -250.18,39.45 -280.59,-107.42 -9.81,-47.38 0.35,-318.53 0.46,-388.47 0.45,-276.52 17.2,-550.87 -35.25,-776.03 -112.25,40.63 -195.5,201.65 -267.1,297.28 -55.78,74.51 -226.89,281.36 -247.91,351.74 -47.92,160.46 27.39,439.14 -45.59,554.06 -156.41,246.3 -280.44,-228.32 -764.9,399.11 -283.62,367.32 -896.72,779.16 -896.72,902.22z"/>
   <path class="fil0" d="M18581.09 -5369.75c-77.52,332.75 -35.27,1227.37 -35.27,1622.58 0,121.61 26.09,136.58 35.27,246.91 787.49,65.53 2186.95,187.35 2186.95,-881.83 0,-355.27 -36.09,-632.5 -419.61,-850.23 -373.86,-212.24 -1563.75,-216.45 -1767.34,-137.43z"/>
   <path class="fil0" d="M9374.75 26341c389.67,0 670.19,353 670.19,740.74 -177.8,-14.8 -428.42,-109.53 -612.36,-163.66 -209.33,-61.6 -384.53,-141.92 -586.92,-189.08 20.78,-249.68 289.5,-388 529.09,-388zm881.83 1587.3l0 -599.65c0,-1314.28 -1272.28,-1463.59 -1608.74,-656.37 -276.42,663.19 -319.3,2243.49 585.51,2387.91 644.38,102.85 1023.23,-481.58 1023.23,-1131.89z"/>
   <path class="fil0" d="M12337.71 -2089.32c0,1454.35 -99.35,1313.19 316.24,1306.33l1376.88 -1.22c66.99,-287.55 -288.78,-890.98 -424.67,-1127.35 -192.8,-335.35 -454.97,-636.04 -739.35,-883.23 -111.37,74.58 -529.1,514.09 -529.1,705.47z"/>
   <path class="fil0" d="M15230.13 28422.13c0,610.12 379.31,740.74 917.1,740.74 898.43,0 921.99,-1410.94 -105.82,-1410.94 -241.41,0 -416.33,67.95 -555.15,185.59 -128.08,108.53 -256.13,260.92 -256.13,484.61z"/>
   <path class="fil0" d="M18863.28 35124.06c106.11,77.75 197.48,288.39 211.64,458.56 -306.12,73.28 -124.73,21.91 -388.01,0 13.69,-164.47 103.8,-350.18 176.37,-458.56zm-1834.21 282.19c0,176.79 103.42,409.7 189.38,516.09 245.86,304.29 602.03,215.63 819.64,173.16 154.21,-30.09 139.37,16.22 296.09,16.22 192,0 107.05,-282.19 317.46,-282.19l458.55 0c209.96,0 89.68,282.19 352.74,282.19 204.52,0 -6.65,-324.4 -136.02,-640l-322.54 -700.39c-361.56,0 -256.62,43.21 -446.4,435.43 -63.25,130.73 -248.16,491.74 -259.06,622.77 -524.97,-43.68 -132.22,70.55 -599.65,70.55 -437.65,0 -554.6,-730.05 -99.57,-878.04 266.73,-86.75 415.14,66.75 522.85,66.75 436.21,0 -307.02,-666.11 -839.39,-169.2 -113.08,105.54 -254.08,283.35 -254.08,486.66z"/>
   <path class="fil0" d="M803.33 34877.15l0 1128.75c0,171.34 246.92,153.23 246.92,-105.82 0,-194.11 -33.44,-494.68 0,-564.38 78.25,28.33 61.48,23.09 131.83,150.36 46.11,83.44 56.61,93.61 102.94,179.25 72.58,134.15 114.33,266.67 259.05,305.31 222.24,-148.81 298.82,-553.15 458.56,-670.19 58.98,253.19 -113.95,811.29 141.09,811.29 172.35,0 106.47,-362.38 105.78,-705.51 -0.62,-309.51 113.28,-634.88 -141.05,-634.88 -104.07,0 -106.04,69.99 -157.81,159.65 -50.31,87.12 -80.8,147.34 -126.14,226.6 -58.14,101.63 -196.74,363.72 -280.43,425.04 -151.03,-101.14 -194.98,-248.42 -332.7,-478.59 -101.35,-169.38 -163.89,-345.7 -300.56,-332.86 -82.28,7.73 -107.48,17.61 -107.48,105.98z"/>
   <path class="fil0" d="M9727.48 34877.15l0 1128.75c0,128.56 254.43,256.89 248.76,-209.8 -1.86,-153.62 -1.84,-306.73 -1.84,-460.4 172.33,62.39 271.23,509.49 458.55,634.92 233.16,-62.25 317.89,-541.29 493.83,-670.19 71.13,148.25 -127.62,811.29 141.09,811.29 81.28,0 105.82,-24.55 105.82,-105.82l0 -1128.75c0,-81.28 -24.54,-105.82 -105.82,-105.82 -203.18,0 -430.13,687.08 -599.65,811.29 -250.89,-168.01 -423.88,-811.29 -634.92,-811.29 -81.27,0 -105.82,24.54 -105.82,105.82z"/>
   <path class="fil0" d="M19639.3 34877.15l0 1128.75c0,128.56 254.42,256.89 248.75,-209.8 -2,-165.35 -1.84,-330.27 -1.84,-495.67 240.81,64.3 543.47,811.29 811.29,811.29 232.26,0 141.09,-737.29 141.09,-1164.02 0,-95.27 -16.84,-97.26 -35.27,-176.37 -328.2,0 -246.92,-54.32 -246.92,811.29 -119.08,-31.8 -147.63,-87 -212.6,-175.41l-360.23 -451.06c-177.81,-204.44 -344.27,-264.24 -344.27,-79z"/>
   <path class="fil0" d="M3131.38 35900.08c-734.75,0 -598.81,-949 -6.35,-908.95 348.54,23.56 581.25,434.95 295.56,774.88 -54.41,64.75 -177.94,134.07 -289.21,134.07zm-776.02 -423.28c0,836.4 1446.21,949.74 1446.21,-35.28 0,-914.27 -1446.21,-943.07 -1446.21,35.28z"/>
   <path class="fil0" d="M14630.48 35512.07c0,-431.62 157.69,-493.83 529.1,-493.83 424.06,0 583.41,881.84 -141.09,881.84 -206.1,0 -388.01,-181.91 -388.01,-388.01zm423.28 634.92c1024.97,0 996.04,-1549.26 -135.94,-1372.17 -70.67,11.06 -126.12,23.09 -193.53,55.05 -309.52,146.76 -439.71,541.66 -310.74,899.05 82.28,228.02 342.37,418.07 640.21,418.07z"/>
   <path class="fil0" d="M4365.94 35512.07c-242.72,0 -245.2,-493.83 -70.54,-493.83 102.9,0 593.44,-54.83 468.69,325.05 -52.26,159.12 -243.26,168.78 -398.15,168.78zm-458.55 -564.37l0 1022.92c0,101.78 282.19,382.46 282.19,-211.64 631.48,-147.11 262.56,352.74 811.28,352.74 -5.16,-231.99 -127.59,-213.91 -176.36,-423.28 141.88,-211.89 211.64,-148.83 211.64,-493.83 0,-207.87 -154.52,-352.5 -342.43,-398.31 -172.03,-41.95 -516.16,-24.97 -751.05,-24.97 -18.43,79.11 -35.27,81.1 -35.27,176.37z"/>
   <path class="fil0" d="M8069.65 35547.34c0,-168.58 106.09,-273.04 141.09,-423.28 142.19,37.97 233.76,300.55 246.91,458.56 -58.7,13.67 -388,101.3 -388,-35.28zm-493.83 564.38c435.83,0 193.93,-282.19 423.28,-282.19l493.83 0c274.24,0 -62.32,282.19 493.82,282.19 0,117.53 -12.79,513.52 165.79,205.19 48.81,-84.26 183.84,-487.38 -24.69,-487.38 -128.91,0 -144.12,20.32 -176.37,141.09 -104.68,-76.69 -236.59,-467.63 -305.67,-611.44 -154.51,-321.68 -179.1,-587.85 -435.07,-587.85 -158.51,0 -622.41,1190.05 -634.92,1340.39z"/>
   <path class="fil0" d="M13078.45 34877.15l0 1128.75c0,108.59 48.87,105.82 141.09,105.82 260.93,0 -60.14,-564.38 246.92,-564.38 294.75,0 283.1,-22.03 529.1,35.28 0,228.71 -7.96,343.53 35.27,529.1 419.7,0 156,-103.06 241.72,-851.67 22.7,-198.21 9.86,-317.29 -30.08,-488.72 -203.61,0 -244.56,-43.1 -250.76,172.52 -11.58,403.5 147.01,356.58 -560.53,356.58 -280.09,0 88.24,-529.1 -246.91,-529.1 -81.27,0 -105.82,24.54 -105.82,105.82z"/>
   <path class="fil0" d="M5141.96 34877.15c0,353.97 -39.83,912.21 35.27,1234.57 164.61,0 329.28,-0.47 493.88,0.05 311.79,0.98 387.31,49.16 458.5,-70.6 73.67,-123.92 -65.83,-141.73 -207.9,-144.53 -149.38,-2.94 -310.9,3.44 -462.29,3.44 -74,-154.21 -74,-198.52 0,-352.74 437.84,0 579.33,67.77 599.64,-176.36 -163.1,-78.26 -435.13,-70.55 -634.92,-70.55l0 -282.19c277.51,0 705.47,61.54 705.47,-141.09 0,-184.04 -373.45,-105.82 -881.83,-105.82 -81.28,0 -105.82,24.54 -105.82,105.82z"/>
   <path class="fil0" d="M6270.7 34877.15c0,1465.45 -126.02,1235.06 529.1,1234.57 223.4,-0.16 446.8,0 670.2,0 9.18,-110.34 35.27,-125.31 35.27,-246.92l0 -987.65c0,-108.59 -48.87,-105.82 -141.09,-105.82 -228.11,0 -44.62,741.87 -106.75,1060.09 -31.14,159.53 -66.42,77.54 -279,68.86 -463.3,-18.92 -417.79,119.56 -425.02,-353.45l-35.79 -775.5c-171.62,0 -246.92,-23.87 -246.92,105.82z"/>
   <path class="fil0" d="M16499.97 35617.89c-121.61,0 -136.58,-26.09 -246.92,-35.27 5.32,-238.56 98.38,-275.19 141.1,-458.56 111.67,29.82 63.57,-8.02 178.45,248.52 44.64,99.7 109.07,245.31 -72.63,245.31zm-740.74 493.83c435.83,0 193.92,-282.19 423.28,-282.19l493.82 0c200.82,0 25.9,273.34 423.28,282.19 0,-216.31 -47.33,-221.03 -115.91,-377.92 -181.8,-415.88 -307.7,-962.47 -589.55,-962.47 -141.86,0 -257.78,394.47 -364.59,623.07 -94.1,201.4 -266.19,531.22 -270.33,717.32z"/>
   <path class="fil0" d="M4683.4 -890.03c0,171.23 256.65,105.82 705.47,105.82 148.7,0 109.63,-159.21 107.04,-316.24l-1.22 -1271.06c-151.72,54.92 -811.29,1398.64 -811.29,1481.48z"/>
   <path class="fil0" d="M11738.06 35441.52c0,714.54 870.39,854.97 1166.63,561.86 69.76,-69.03 55.14,-138.62 -29.42,-185.45 -156.43,-86.65 -67.2,82.15 -467.01,82.15 -555.54,0 -532.09,-1019.76 150.75,-894.3 123.32,22.66 382.63,183.77 393.81,-26.79 6.91,-130.25 -539.53,-428.98 -980.12,-43.57 -84.8,74.18 -116.18,91.94 -159.74,192.99 -22.96,53.26 -74.9,247.46 -74.9,313.11z"/>
   <path class="fil0" d="M11385.33 34947.7c0,344.84 -38.9,845.64 35.27,1164.02 107.47,-2.4 128.6,-15.93 211.64,-35.28 0,-167.85 51.63,-1204.14 -48.98,-1296.61 -97.41,-89.53 -197.93,13.69 -197.93,167.87z"/>
   <path class="fil0" d="M18792.73 34630.24c76.88,36.88 118.91,39.28 206.56,-2.55 122.07,-58.25 31.94,-63.35 181.45,-103.27l0 -105.82c-171.6,0 -330.22,-4.79 -388.01,211.64z"/>
   <path class="fil0" d="M11314.78 -819.48c248.8,139.77 211.64,-102.41 211.64,-211.64 -151.99,12.65 -62.37,-36.68 -145.08,66.55l-38.86 66.97c-22.47,47.2 -8.03,4.45 -27.7,78.12z"/>
  </g>
 </g>
</svg>
